<svg height="512pt" viewBox="-22 0 512 512.00055" width="512pt" xmlns="http://www.w3.org/2000/svg"><path d="m252.683594 57.101562c-3.417969-10.726562-11.699219-29.496093-28.753906-34.65625-2.96875-.898437-6.164063-1.355468-9.496094-1.355468-11.183594 0-22.179688 5.097656-29.476563 8.933594-26.035156 13.664062-49.269531 33.222656-67.183593 56.5625l-1.453126 1.894531.558594 2.320312c4.304688 17.890625 8.417969 35.875 12.222656 53.449219l1.371094 6.328125 5.777344-2.925781c25.046875-12.691406 53.167969-19.398438 81.320312-19.398438 10.386719 0 20.761719.917969 30.835938 2.726563l4.503906.8125 1.203125-4.414063c6.234375-22.84375 5.726563-47.800781-1.429687-70.277344zm0 0" fill="#efb17c"/><path d="m298.152344 148.589844c.089844.050781.171875.09375.261718.144531l4.5625 2.550781 2.34375-4.675781c13.253907-26.433594 32.71875-50.527344 56.3125-69.683594.25-.207031.507813-.40625.765626-.605469.234374-.179687.464843-.363281.699218-.546874l4.226563-3.378907-3.707031-3.945312c-13.007813-13.855469-30.378907-23.328125-48.90625-26.671875-4.984376-.894532-10.132813-1.351563-15.3125-1.351563-15.320313 0-30.316407 3.847657-43.382813 11.132813l-4.46875 1.910156 1.339844 4.308594c6.890625 22.121094 7.378906 46.644531 1.375 69.0625l-1.328125 4.957031 4.992187 1.195313c12.1875 2.925781 23.878907 7.191406 34.75 12.671874 1.28125.648438 2.628907 1.359376 4.160157 2.199219-1.375-.75-2.757813-1.488281-4.160157-2.195312-22.480469-11.34375-48.421875-17.339844-75.019531-17.339844-2.0625 0-4.152344.035156-6.21875.105469-27.097656.945312-53.9375 8.027344-77.617188 20.484375l-3.34375 1.757812.78125 3.699219c.957032 4.539062 1.898438 9.085938 2.828126 13.632812l-9.875.652344c.046874-.675781.554687-1.234375 1.230468-1.355468-18.621094 3.382812-35.691406 13.121093-48.066406 27.410156-5.007812 5.769531-6.320312 11.570312-3.492188 15.542968 1.78125 2.472657 4.804688 3.726563 8.984376 3.726563 1.300781 0 2.75-.121094 4.308593-.359375 17.480469-2.671875 34.453125-9.367188 49.074219-19.363281l2.707031-1.847657c3.277344 16.898438 6.367188 33.804688 9.253907 50.660157l-5.207032 1.738281c-3.175781-.566406-6.460937-.855469-9.765625-.855469-13.882812 0-27.738281 5.027344-38.019531 13.789063-5.984375 5.089844-8.390625 10.992187-6.449219 15.757812 1.179688 2.941406 4.019531 5.289063 7.566407 6.269532 1.59375.453124 3.351562.675781 5.371093.675781 1.113281 0 2.359375-.066407 3.929688-.203125 15.074219-1.347656 29.859375-6.207032 42.78125-14.058594l3.359375-1.683594c1.210937 7.484375 2.394531 14.957032 3.519531 22.402344l-1.625 6.609375 6.785156-.421875c33.464844-2.066406 67.648438-3.730469 101.601563-4.941406l3.761718-.132813.914063-3.652343c.027344-.117188.050781-.230469.074219-.347657 5.183594-18.5 16.144531-35.476562 30.878906-47.835937 3.742188-3.140625 7.25-4.800782 10.148438-4.800782 1.210937 0 2.289062.296876 3.28125.898438 1.984374 1.210938 3.261718 3.671875 3.421874 6.582031.152344 2.769531-.667968 5.671875-1.578124 8.394531-3.765626 11.238282-9.628907 22.191407-16.957032 31.671876l-6.449218 8.34375 10.542968-.289063c5.453125-.152344 10.914063-.292969 16.359375-.410156 17.574219-.375 36.503907-.640625 56.261719-.789063l4.945312-.039062.015626-4.941406c.203124-53.070313-31.527344-105.425782-79.527344-132.214844zm-148.957032 100.28125c.550782 3.261718 1.09375 6.515625 1.628907 9.773437-.539063-3.261719-1.074219-6.519531-1.628907-9.773437zm62.042969-63.863282-.152343.527344c-.132813.449219-.246094.835938-.332032 1.167969-5.378906 21.257813-17.777344 40.320313-34.917968 53.691406-1.085938.855469-3.628907 2.847657-6.046876 2.847657-.390624 0-.757812-.054688-1.125-.164063-1.636718-.484375-2.933593-2.109375-3.382812-4.242187-.410156-1.9375-.128906-4.039063.410156-6.59375 2.515625-11.832032 7.875-23.285157 15.503906-33.128907 6.445313-8.328125 14.398438-15.410156 23-20.488281l.855469-.515625c1.625-1.007813 4.644531-2.886719 6.589844-2.886719.472656 0 .644531.121094.808594.261719 1.324219 1.152344-.507813 7.191406-1.210938 9.523437zm48.972657 48.070313c-6.03125 9.722656-13.9375 18.101563-18.113282 22.226563-2.75 2.714843-6.09375 5.699218-10.023437 7.261718-1.78125.707032-3.585938 1.066406-5.363281 1.066406-2.191407 0-4.1875-.558593-5.796876-1.621093-3.269531-2.144531-5.109374-6.460938-4.804687-11.265625.289063-4.566406 2.316406-8.902344 4.460937-12.90625 5.371094-10.039063 11.734376-18.917969 18.917969-26.386719 3.316407-3.453125 13.03125-11.023437 20.304688-11.023437.777343 0 1.507812.089843 2.164062.265624 2.667969.722657 4.40625 2.882813 5.320313 6.605469 1.675781 6.839844-.699219 15.511719-7.066406 25.777344zm0 0" fill="#c67045"/><path d="m121.742188 111.417969-.714844-3.050781c-.949219-4.089844-1.910156-8.175782-2.882813-12.253907l-1.074219-4.503906-4.570312.722656c-20.25 3.195313-39.613281 13.820313-53.128906 29.148438-4.671875 5.324219-5.859375 10.632812-3.191406 14.183593 1.066406 1.433594 3.203124 3.140626 7.328124 3.140626 1.546876 0 3.324219-.226563 5.292969-.683594 18.347657-4.300782 35.8125-12.851563 50.503907-24.730469zm0 0" fill="#c67045"/><path d="m447.585938 285.644531c-3.21875-.890625-7.207032-1.324219-12.203126-1.324219-4.675781 0-9.484374.363282-14.21875.71875-4.34375.324219-8.449218.632813-12.125.632813 0 0-5.285156-.007813-7.851562-.007813-28.269531 0-56.777344.308594-84.734375.910157-60.769531 1.3125-122.335937 4.09375-182.988281 8.269531-28.703125 1.976562-58.617188 4.390625-88.914063 7.171875l-.839843.074219-.65625.300781-.753907-.167969-4.613281.417969c-2.65625.242187-5.308594.484375-7.957031.734375-5.203125.5-11.101563 1.066406-16.136719 3.699219-4.539062 2.382812-8.953125 7.390625-8.574219 13.222656.394531 5.691406 5.296875 10.066406 9.96875 11.867187 4.320313 1.675782 9.046875 1.90625 13.511719 1.90625.863281 0 1.726562-.007812 2.660156-.019531 131.9375-1.390625 265.539063-7.59375 397.105469-18.433593 9.457031-.785157 18.429687-2.007813 24.265625-8.234376 3.15625-3.351562 4.332031-8.609374 2.988281-13.433593-1.203125-4.214844-4.09375-7.242188-7.933593-8.304688zm0 0" fill="#ff8984"/><path d="m395.035156 109.488281c-4.167968 6.945313-7.507812 14.339844-10.738281 21.488281-2.09375 4.625-4.261719 9.410157-6.640625 14.046876-8.851562 17.222656-20.089844 28.859374-32.503906 33.652343l-6.421875 2.480469 4.34375 5.339844c10.296875 12.667968 18.515625 26.667968 24.417969 41.613281l2.265624 5.726563 5.136719-3.390626c12.683594-8.363281 22.550781-22.15625 28.539063-39.886718 5.066406-15.027344 6.9375-31.023438 8.746094-46.5l.035156-.300782c.269531-2.300781.535156-4.605468.8125-6.894531 1.625-13.386719 3.832031-28.871093 9.480468-43.265625l5.699219-14.519531-13.078125 8.5c-7.523437 4.890625-14.285156 12.257813-20.09375 21.910156zm0 0" fill="#f9d889"/><path d="m33.0625 334.035156-5.765625.0625.878906 5.699219c3.722657 24.046875 7.707031 47.445313 15.523438 69.394531 9.527343 26.71875 24.074219 48.21875 42.066406 62.171875 23.347656 18.121094 52.953125 24.789063 78.835937 28.921875 27.953126 4.457032 56.484376 6.714844 84.804688 6.714844 18.804688 0 37.816406-1 56.5-2.972656 20.789062-2.183594 42.660156-5.707032 61.757812-16.566406 24.996094-14.214844 44.113282-40.902344 53.828126-75.140626 8.6875-30.609374 9.257812-62.925781 9.761718-91.4375l.097656-5.523437-5.503906.449219c-130.167968 10.675781-262.316406 16.808594-392.785156 18.226562zm0 0" fill="#ed6d66"/><g fill="#f7b36f"><path d="m445.457031 35.023438-4.378906 1.164062c-28.46875 7.5625-55.949219 21.652344-79.46875 40.75-23.792969 19.320312-43.378906 43.664062-56.648437 70.390625l-1.980469 3.992187 3.742187 2.425782c11.589844 7.515625 22.234375 16.667968 31.636719 27.203125l2.140625 2.398437 3.070312-.949218c17.941407-5.5625 29.886719-22.648438 36.746094-36 2.332032-4.539063 4.472656-9.25 6.539063-13.804688l.199219-.445312c3.203124-7.070313 6.515624-14.382813 10.554687-21.113282 6.863281-11.425781 15.21875-19.585937 24.355469-23.828125-7.382813 15.980469-10.023438 33.738281-11.914063 49.300781-.253906 2.082032-.5 4.167969-.742187 6.25l-.113282.972657c-1.789062 15.316406-3.640624 31.15625-8.609374 45.871093-5.902344 17.46875-16.058594 31.367188-28.597657 39.140626l-3.386719 2.101562 1.292969 3.769531c5.214844 15.214844 7.835938 30.71875 7.789063 46.082031l-.015625 5.039063 5.039062-.019531c6.398438-.03125 12.792969-.050782 19.175781-.050782 2.335938 0 4.667969.003907 7.011719.007813 2.125 0 4.550781-.097656 7.863281-.320313l3.152344-.222656 1.167969-2.929687c45.613281-70.804688 55.5625-163.890625 25.96875-242.933594zm0 0"/><path d="m262.441406 288.113281 6.964844-.234375c7.152344-.238281 14.304688-.457031 21.445312-.65625l2.195313-.0625 1.441406-1.664062c9.402344-10.847656 16.773438-23.738282 21.316407-37.292969.941406-2.824219 1.929687-6.121094 1.726562-9.503906-.207031-3.832031-2.0625-7.269531-4.851562-8.980469-1.441407-.875-3.074219-1.320312-4.851563-1.320312-4.5625 0-9.085937 2.980468-12.082031 5.484374-14.640625 12.28125-25.753906 29.171876-31.292969 47.558594zm0 0"/><path d="m219.269531 264.523438c2.089844 1.371093 4.664063 2.09375 7.449219 2.09375 2.136719 0 4.371094-.4375 6.460938-1.265626 4.402343-1.742187 8.039062-4.972656 11.023437-7.910156 7.261719-7.175781 30.59375-32.039062 25.992187-50.859375-1.183593-4.796875-3.6875-7.75-7.476562-8.785156-.945312-.25-1.953125-.375-3-.375-7.945312 0-17.953125 7.332031-22.394531 11.953125-7.378907 7.671875-13.90625 16.773438-19.410157 27.054688-2.292968 4.3125-4.464843 9.007812-4.792968 14.128906-.378906 5.871094 1.972656 11.21875 6.148437 13.964844zm0 0"/><path d="m167.824219 245.960938c.632812.183593 1.300781.28125 1.984375.28125 2.375 0 4.808594-1.078126 7.875-3.484376 17.652344-13.753906 30.425781-33.398437 35.964844-55.285156.097656-.363281.242187-.851562.410156-1.417968l.070312-.226563c1.550782-5.144531 1.761719-7.222656 1.769532-8.457031l.054687-6.617188-6.378906 1.757813c-1.496094.410156-3.382813 1.347656-6.101563 3.035156l-.808594.5c-8.925781 5.277344-17.171874 12.613281-23.851562 21.226563-3.929688 5.082031-7.296875 10.59375-10 16.375-2.722656 5.808593-4.761719 11.855468-6.054688 17.960937-.621093 2.921875-.929687 5.378906-.40625 7.878906.695313 3.210938 2.792969 5.6875 5.472657 6.472657zm0 0"/><path d="m41.75 298.382812 1.246094 3.769532 3.957031-.359375c29.433594-2.6875 58.539063-5.027344 86.507813-6.953125 4.421874-.304688 8.855468-.589844 13.289062-.875l10.847656-.707032-2.304687-6.335937c-.902344-5.9375-1.851563-12.03125-2.90625-18.628906l-1.144531-7.160157-6.285157 3.613282c-12.085937 6.953125-25.777343 11.277344-39.597656 12.507812-1.4375.128906-2.59375.1875-3.632813.1875-1.765624 0-3.261718-.179687-4.574218-.550781-2.636719-.742187-4.78125-2.460937-5.597656-4.496094-1.414063-3.480469.734374-8.222656 5.605468-12.367187 9.90625-8.4375 22.625-13.085938 35.816406-13.085938 3.113282 0 6.230469.269532 9.265626.796875l6.976562 1.214844-1.191406-6.984375c-2.527344-14.777344-5.300782-30.027344-8.25-45.332031l-1.402344-7.28125-6.222656 4.027343c-13.691406 8.855469-29.402344 14.832032-45.4375 17.277344-1.339844.207032-2.605469.3125-3.765625.3125-4.859375 0-6.199219-1.871094-6.636719-2.480468-1.957031-2.738282-.714844-7.15625 3.324219-11.816407 11.941406-13.777343 28.402343-23.15625 46.335937-26.414062-.085937.015625-.175781.023437-.261718.023437-.574219 0-1.089844-.316406-1.347657-.828125l9.363281-3.257812c-3.566406-17.285157-7.25-34.207031-10.945312-50.289063l-1.738281-7.574218-6.171875 4.722656c-13.78125 10.542968-29.953125 18.195312-46.765625 22.132812-1.71875.402344-3.261719.609375-4.578125.609375-3.140625 0-4.320313-1.09375-4.9375-1.914062-2.078125-2.785157.207031-7.207031 3.039062-10.421875 12.914063-14.660156 31.441406-24.898438 50.832032-28.082032l5.3125-.875-1.265626-5.234374c-2.398437-9.910157-4.886718-19.914063-7.398437-29.738282-3.296875-12.851562-6.28125-23.449218-12.109375-33.117187-6.804688-11.300781-16.746094-18.914063-27.269531-20.882813-1.90625-.359375-3.894531-.542968-5.910157-.542968-7.1875 0-14.800781 2.339843-21.4375 6.582031-7.242187 4.632812-13.769531 11.632812-19.40625 20.804687-20.015624 32.566406-18.859374 73.367188-15.089843 108.984375 5.640625 53.261719 17.035156 106.089844 33.863281 157.019531zm0 0"/></g><path d="m448.925781 280.824219c-5.980469-1.65625-13.199219-1.683594-20.277343-1.304688 44.53125-72.957031 52.832031-166.699219 21.4375-246.265625-.914063-2.320312-3.398438-3.613281-5.824219-3.027344-27.015625 6.523438-53.175781 18.734376-76.3125 35.542969-13.765625-15.054687-32.222657-25.277343-52.351563-28.90625-20.972656-3.78125-42.75-.214843-61.429687 10.019531-6.679688-15.304687-16.695313-25.566406-28.792969-29.226562-15.707031-4.753906-31.917969 2.253906-42.746094 7.9375-24.359375 12.785156-46.285156 30.597656-63.886718 51.789062-1.574219-6.371093-3.164063-12.734374-4.789063-19.082031-2.667969-10.414062-5.988281-23.371093-12.664063-34.460937-7.542968-12.519532-18.707031-20.984375-30.632812-23.21875-10.039062-1.886719-21.328125.578125-30.972656 6.75-7.882813 5.050781-14.941406 12.585937-20.96875 22.394531-20.796875 33.84375-19.65625 75.671875-15.800782 112.125 5.601563 52.898437 16.828126 105.296875 33.363282 155.863281-2.335938.21875-4.691406.425782-7.023438.648438-5.667968.542968-12.09375 1.160156-17.976562 4.246094-7.300782 3.828124-11.714844 10.882812-11.2421878 17.96875.4609378 6.929687 5.6249998 13.292968 13.1523438 16.210937 3.238281 1.253906 6.554688 1.820313 9.792969 2.066406 3.691406 23.941407 7.679687 48.574219 16.011719 71.972657 9.835937 27.605468 24.949218 49.890624 43.710937 64.449218 24.238281 18.808594 54.605469 25.667969 81.113281 29.898438 28.339844 4.523437 56.96875 6.785156 85.621094 6.785156 19.015625 0 38.046875-1 56.992188-2.996094 20.3125-2.144531 43.765624-5.863281 63.707031-17.199218 26.136719-14.859376 46.085937-42.605469 56.167969-78.125 8.738281-30.765626 9.421874-62.84375 9.96875-93.914063 7.476562-1.109375 14.628906-3.332031 19.914062-8.964844 4.394531-4.683593 5.984375-11.648437 4.152344-18.179687-1.671875-5.949219-5.832032-10.25-11.414063-11.796875zm-6.5625-239.800781c29.105469 77.714843 19.472657 168.675781-25.496093 238.472656-.179688.277344-.324219.566406-.441407.863281-2.6875.179687-5.238281.3125-7.539062.316406-8.707031-.019531-17.453125 0-26.207031.042969.042968-14.328125-2.40625-28.203125-6.207032-41.96875-.453125-1.640625-.785156-3.3125-1.101562-4.984375 18.695312-13.164063 30.640625-35.839844 36.507812-69.296875 1.253906-7.148438 2.242188-14.449219 3.199219-21.507812 2.53125-18.671876 4.917969-36.3125 11.878906-52.796876.8125-1.921874.34375-4.144531-1.167969-5.578124-1.515624-1.433594-3.757812-1.777344-5.628906-.863282-14.710937 7.175782-27.488281 18.835938-35.972656 32.832032-4.046875 6.675781-7.125 13.8125-10.105469 20.710937-2.316406 5.367187-4.710937 10.917969-7.488281 16.03125-8.214844 15.125-17.550781 20.699219-23.609375 22.746094-3.511719-3.683594-8.367187-6.378907-12.050781-9.78125-6.675782-6.164063-13.867188-11.769531-21.488282-16.710938 12.949219-26.085937 32.007813-49.800781 55.320313-68.734375 23.03125-18.699218 49.777344-32.40625 77.597656-39.792968zm-69.699219 182.113281c-2.277343-5.355469-6.023437-9.957031-8.976562-14.933594-3.339844-5.625-6.695312-11.363281-10.503906-16.691406-1.671875-2.34375-3.023438-4.679688-4.359375-6.96875 8.195312-3.414063 18.050781-10.8125 26.554687-26.46875 2.996094-5.515625 5.480469-11.273438 7.882813-16.84375 2.976562-6.890625 5.785156-13.40625 9.476562-19.492188 5.179688-8.539062 12.160157-16.09375 20.265625-22.042969-4.019531 13.75-5.949218 28.015626-7.835937 41.925782-.941407 6.964844-1.917969 14.167968-3.136719 21.121094-5.042969 28.742187-14.65625 48.59375-29.324219 60.507812-.015625-.039062-.027343-.078125-.042969-.113281zm-114.367187-167.128907c16.585937-9.285156 36.824219-12.679687 55.527344-9.304687 17.410156 3.140625 34.011719 12.234375 46.144531 25.164063-.5.398437-1.007812.785156-1.503906 1.1875-24.203125 19.65625-44.042969 44.246093-57.613282 71.320312-1.953124-1.09375-3.917968-2.160156-5.921874-3.167969-11.378907-5.746093-23.421876-10.09375-35.839844-13.078125 6.257812-23.363281 5.765625-48.757812-1.433594-71.84375.214844-.082031.433594-.160156.640625-.277344zm32.128906 94.125c49.433594 24.945313 82.457031 77.425782 82.253907 130.652344-18.816407.132813-37.65625.386719-56.332032.789063-2.910156.066406-5.824218.140625-8.742187.226562 7.648437-9.507812 13.136719-20.851562 15.726562-32.726562.757813-3.472657 1.5-8.042969.503907-12.617188-1.183594-5.433593-4.796876-9.875-9.417969-11.589843-3.511719-1.300782-7.617188-1.128907-12.195313.515624-7.539062 2.707032-13.5 7.84375-17.851562 12.019532-10.207032 9.792968-18.550782 21.199218-24.792969 33.898437-1.773437 3.605469-3.632813 7.839844-4.546875 12.523438-5.3125.210937-10.621094.414062-15.917969.585937-13.832031.453125-27.660156 1-41.480469 1.652344-3.730468.175781-37.074218.351562-37.484374 2.039062.148437-.609374.1875-1.257812.085937-1.921874-6.695313-44.324219-14.761719-88.742188-24.089844-132.84375 23.027344-12.101563 49.039063-18.980469 75.464844-19.902344 27.984375-.976563 55.234375 4.800781 78.816406 16.699218zm3.367188 132.125c-9.441407.347657-18.90625.75-28.375 1.144532.800781-2.734375 1.984375-5.359375 3.132812-7.691406 5.726563-11.648438 13.378907-22.109376 22.742188-31.09375 3.632812-3.488282 8.542969-7.753907 14.304687-9.824219 2.269532-.8125 4.117188-1.003907 5.34375-.550781 1.414063.527343 2.671875 2.273437 3.125 4.347656.582032 2.667968.070313 5.71875-.503906 8.351562-2.828125 12.972656-9.613281 25.226563-19.105469 34.511719-.253906.246094-.476562.519531-.664062.804687zm-149.613281-30.808593c.566406 3.003906 1.140624 6.003906 1.679687 9.011719-14.359375 6.566406-30.898437 13.191406-47.296875 11.617187-3.234375-.3125-4.71875-1.210937-4.925781-1.738281-.183594-.472656.1875-2.027344 1.984375-4.183594 6.292968-7.5625 15.148437-11.105469 21.472656-12.746094 7.359375-1.914062 15.867188-2.53125 26.773438-1.945312.105468.003906.207031-.015625.3125-.015625zm-16.632813-80.449219s.003906-.003906.003906-.003906c1.078125 5.453125 2.152344 10.878906 3.402344 16.242187-13.351563 10.804688-30.0625 16.976563-47.246094 17.382813-3.84375.09375-4.535156-.707032-4.601562-.800782-.207031-.289062-.324219-1.589843.648437-3.753906 3.675782-8.195312 12.476563-13.683594 21.171875-18.601562 8.839844-5 17.53125-9.5625 26.621094-10.464844zm59.730469-136.550781c9.269531-4.871094 23.007812-10.914063 35.199218-7.222657 14.875 4.5 22.328126 21.601563 25.441407 31.394532 6.890625 21.636718 7.355469 45.53125 1.375 67.445312-38.265625-6.890625-79.328125-1.101562-115.308594 17.121094-3.871094-17.921875-7.964844-35.777344-12.25-53.554688 17.480469-22.765624 40.128906-41.84375 65.542969-55.183593zm-74.339844 63.441406c.589844 2.726563 1.167969 5.457031 1.746094 8.1875-14.417969 12.050781-32.460938 20.257813-51.007813 23.152344-.792969.125-1.503906.132812-2.0625.089843 4.835938-10.292968 13.703125-16.878906 20.324219-20.609374 9.902344-5.570313 21.019531-8.410157 29.601562-10.265626.507813-.109374.96875-.3125 1.398438-.554687zm-100.078125 42.945313c-3.679687-34.777344-4.847656-74.546876 14.375-105.832032 5.234375-8.519531 11.238281-14.980468 17.84375-19.210937 7.519531-4.8125 16.171875-6.761719 23.734375-5.34375 9.125 1.710937 17.835938 8.472656 23.910156 18.550781 5.484375 9.105469 8.355469 19.34375 11.542969 31.785156 2.367187 9.234375 4.554687 18.511719 6.632813 27.8125-.480469-.039062-.972657-.03125-1.46875.074219-9.269532 2-21.328126 5.097656-32.394532 11.328125-7.996094 4.496094-18.765625 12.578125-24.679687 25.515625-.757813 1.660156-1.488281 3.675781-1.160157 6.042969.3125 2.269531 1.464844 4.199218 3.324219 5.582031 2.386719 1.769531 5.359375 2.203125 7.695313 2.203125 1.242187 0 2.308594-.125 3-.234375 18.582031-2.898437 36.703125-10.664063 51.746094-22.0625 1.621093 7.890625 4.425781 15.308594 6.160156 23.265625 1.503906 6.898438 1.867187 13.898438 2.738281 20.820312-10.738281 1.238282-20.257813 6.199219-29.859375 11.628907-10.140625 5.734375-20.453125 12.253906-25.371094 23.214843-2.347656 5.222657-2.222656 10.078126.34375 13.664063 3.265625 4.566406 9.03125 4.996094 11.9375 4.996094.402344 0 .75-.007813 1.03125-.015625 17.898438-.425782 35.34375-6.390625 49.765625-16.894532.59375 1.992188 1.21875 3.976563 1.910157 5.945313 3.160156 8.972656 2.808593 19.445313 4.773437 28.730469.632813 2.980468 1.222656 5.980468 1.824219 8.972656-10.941406-.445312-19.769532.3125-27.636719 2.355469-11.101563 2.886719-20.316406 8.425781-26.644531 16.027343-4.03125 4.84375-5.3125 9.902344-3.605469 14.246094 1.261719 3.199219 4.585937 7.191406 13.277344 8.027344 2.003906.191406 3.996093.285156 5.980469.285156 15.707031 0 30.71875-5.695312 44.023437-11.671875.957031 5.6875 1.882813 11.371094 2.734375 17.03125.054688.359375.152344.703125.277344 1.027344-5.839844.375-11.679688.753906-17.503906 1.152344-28.765626 1.980469-57.816407 4.328125-86.621094 6.957031-16.707032-50.570312-28.03125-103.019531-33.636719-155.976562zm403.824219 270.113281c-9.363282 32.980469-27.648438 58.609375-51.488282 72.160156-18.296874 10.402344-39.5625 13.8125-59.816406 15.949219-46.605468 4.914062-93.707031 3.664062-139.988281-3.71875-25.257813-4.03125-54.105469-10.5-76.558594-27.921875-17.25-13.386719-31.226562-34.101563-40.417969-59.90625-7.835937-21.992188-11.746093-45.523438-15.296874-68.480469 130.664062-1.421875 262.902343-7.558594 393.132812-18.242188-.53125 30.054688-1.292969 61.023438-9.566406 90.160157zm32.210937-106.992188c-4.636719 4.941407-12.597656 5.972657-21.042969 6.671875-131.40625 10.835938-264.894531 17.039063-396.746093 18.425782-4.929688.050781-10.023438.105468-14.304688-1.554688-3.109375-1.203125-6.558593-4.078125-6.789062-7.550781-.238281-3.546875 2.894531-6.863281 5.910156-8.445313 4.144531-2.175781 9.300781-2.667968 14.285156-3.148437 3.910157-.371094 7.84375-.722657 11.769531-1.085938.359376.082031.722657.136719 1.097657.136719.527343 0 1.066406-.082031 1.597656-.261719.121094-.039062.226563-.105469.34375-.15625 29.515625-2.710937 59.304687-5.125 88.792969-7.15625 60.566406-4.167969 122.050781-6.945312 182.753906-8.257812 30.609375-.664063 61.667969-.964844 92.304688-.898438 3.917968.007813 8.171874-.316406 12.699218-.65625 8.507813-.644531 18.148438-1.371093 24.691406.441407 2.914063.808593 4.042969 3.394531 4.453126 4.863281.863281 3.082031.136718 6.554687-1.816407 8.632812zm0 0"/><path d="m204.660156 166.789062c-.621094.4375-1.261718.886719-1.570312 1.066407-16.019532 9.335937-28.277344 21.65625-36.433594 36.625-4.9375 9.054687-8.21875 18.644531-9.761719 28.503906-.4375 2.773437-.707031 5.753906.253907 8.757813 1.839843 5.757812 7.765624 9.59375 14.34375 9.59375.8125 0 1.632812-.058594 2.460937-.175782 6.125-.898437 11.023437-4.667968 14.613281-7.851562 12.929688-11.476563 21.828125-26.449219 27.398438-36.710938 4.578125-8.433594 9.183594-18.46875 8.628906-28.953125-.175781-3.289062-.703125-13.304687-8.027344-15.203125-4.175781-1.082031-8.460937 1.929688-11.90625 4.347656zm2.515625 35.039063c-8.394531 15.464844-16.183593 25.953125-25.25 34.003906-2.542969 2.257813-5.917969 4.917969-9.417969 5.433594-2.507812.363281-5.285156-.859375-5.832031-2.566406-.34375-1.074219-.128906-2.714844.097657-4.167969 1.363281-8.722656 4.277343-17.222656 8.660156-25.265625 7.269531-13.339844 18.269531-24.367187 32.691406-32.769531.671875-.390625 1.417969-.914063 2.28125-1.523438.765625-.535156 2.25-1.578125 3.402344-2.230468.296875.90625.648437 2.546874.796875 5.429687.421875 7.980469-3.320313 16.085937-7.429688 23.65625zm0 0"/><path d="m208.117188 264.945312c3.53125 4.792969 9.722656 7.617188 16.339843 7.617188 1.042969 0 2.09375-.070312 3.144531-.214844 7.113282-.964844 13.183594-4.839844 17.132813-7.671875 11.574219-8.300781 21.113281-19.394531 27.582031-32.082031 6.105469-11.96875 7.4375-22.585938 3.964844-31.554688-2.648438-6.84375-7.167969-9.335937-10.492188-10.21875-10.542968-2.800781-23.246093 6.195313-31.882812 13.210938-11.738281 9.53125-20.855469 21.8125-26.359375 35.515625-4.1875 10.421875-3.988281 19.203125.570313 25.398437zm8.707031-21.667968c4.875-12.132813 12.960937-23.019532 23.386719-31.484375 14.066406-11.421875 20.457031-11.984375 23.011718-11.308594 1.015625.269531 2.507813.996094 3.734375 4.164063 2.992188 7.726562-.277343 16.992187-3.546875 23.402343-5.75 11.269531-14.21875 21.125-24.5 28.5-4.964844 3.558594-8.867187 5.375-12.652344 5.890625-4.109374.558594-8.167968-.820312-10.085937-3.425781-3.03125-4.117187-1.320313-10.832031.652344-15.738281zm0 0"/><path d="m163.578125 90.992188c13.128906 3.09375 25.640625 9.179687 36.179687 17.597656.921876.734375 2.023438 1.09375 3.117188 1.09375 1.46875 0 2.921875-.644532 3.910156-1.878906 1.722656-2.15625 1.371094-5.304688-.785156-7.027344-11.691406-9.339844-25.566406-16.085938-40.128906-19.519532-2.683594-.632812-5.378906 1.03125-6.011719 3.71875s1.03125 5.382813 3.71875 6.015626zm0 0"/><path d="m186.363281 70.011719c8.09375 2.644531 15.835938 6.921875 22.386719 12.363281.933594.777344 2.066406 1.15625 3.191406 1.15625 1.433594 0 2.859375-.617188 3.847656-1.808594 1.765626-2.121094 1.476563-5.273437-.648437-7.039062-7.511719-6.242188-16.390625-11.144532-25.671875-14.175782-2.625-.855468-5.449219.574219-6.308594 3.199219-.855468 2.625.578125 5.449219 3.203125 6.304688zm0 0"/><path d="m282.054688 467.621094c.78125 0 1.574218-.179688 2.3125-.566406 5.953124-3.109376 11.566406-6.820313 16.800781-11.003907.617187.15625 1.191406.214844 1.65625.214844.378906 0 .6875-.03125.902343-.050781 11.207032-1.035156 22.226563-3.59375 32.746094-7.601563 2.578125-.980469 3.875-3.871093 2.890625-6.449219-.984375-2.582031-3.871093-3.878906-6.453125-2.894531-6.375 2.429688-12.953125 4.273438-19.671875 5.527344 6.066407-6.574219 11.367188-13.875 15.746094-21.6875l25.378906-13.816406c2.425781-1.320313 3.320313-4.359375 2-6.785157-1.316406-2.421874-4.355469-3.320312-6.78125-2l-13.472656 7.335938c1.554687-4.09375 2.882813-8.265625 3.945313-12.507812 8.621093-8.09375 17.289062-16.363282 25.777343-24.605469 1.980469-1.921875 2.027344-5.089844.101563-7.070313-1.921875-1.980468-5.089844-2.027344-7.070313-.101562-5.289062 5.136718-10.65625 10.273437-16.035156 15.386718.292969-3.277343.449219-6.566406.425781-9.863281-.019531-2.75-2.253906-4.964843-5-4.964843-.011718 0-.023437 0-.035156 0-2.761719.023437-4.984375 2.277343-4.964844 5.039062.03125 4.398438-.261718 8.789062-.847656 13.140625-4.617188-4.640625-8.6875-9.789063-12.136719-15.398437-1.445312-2.351563-4.527343-3.085938-6.878906-1.640626-2.351563 1.445313-3.085937 4.523438-1.640625 6.878907 5.011719 8.152343 11.1875 15.441406 18.371094 21.722656-1.117188 4.296875-2.519532 8.519531-4.1875 12.640625-1.394532-4.128906-2.925782-8.207031-4.609375-12.199219-1.074219-2.546875-4.007813-3.738281-6.550781-2.667969-2.542969 1.074219-3.738282 4.007813-2.664063 6.550782 2.933594 6.957031 5.394531 14.175781 7.363281 21.472656-3.996094 6.878906-8.773437 13.296875-14.21875 19.074219-.507812-6.523438-.664062-13.085938-.457031-19.605469.089844-2.757812-2.078125-5.066406-4.835937-5.15625-2.738282-.066406-5.070313 2.078125-5.15625 4.839844-.304688 9.5.125 19.082031 1.253906 28.527344-5.050782 4.160156-10.507813 7.816406-16.320313 10.855468-2.449219 1.277344-3.398437 4.296875-2.121093 6.746094.894531 1.707031 2.636718 2.683594 4.4375 2.683594zm0 0"/><path d="m124.171875 393.769531c.433594.464844 1.390625 1.488281 2.804687 2.179688.527344 7.496093 1.863282 14.949219 3.957032 22.1875-5.164063-2.953125-10.203125-6.144531-15.054688-9.539063-2.265625-1.582031-5.382812-1.027344-6.964844 1.234375-1.582031 2.261719-1.03125 5.382813 1.234376 6.964844 8.234374 5.753906 16.964843 10.949219 25.953124 15.441406 2.019532 4.515625 4.34375 8.886719 6.957032 13.074219-7.519532-.953125-14.902344-2.738281-22.050782-5.363281-2.59375-.953125-5.464843.375-6.417968 2.96875s.375 5.464843 2.96875 6.417969c10.652344 3.914062 21.789062 6.132812 33.117187 6.648437 4.324219 5.304687 9.175781 10.175781 14.511719 14.46875.925781.742187 2.03125 1.105469 3.132812 1.105469 1.460938 0 2.910157-.640625 3.898438-1.867188 1.730469-2.152344 1.390625-5.300781-.761719-7.03125-4.113281-3.308594-7.914062-6.996094-11.367187-10.984375.121094-.25.21875-.480469.300781-.675781 4.183594-9.921875 9.648437-19.265625 16.246094-27.773438 1.691406-2.183593 1.296875-5.324218-.886719-7.015624-2.179688-1.691407-5.320312-1.292969-7.015625.886718-6.121094 7.894532-11.335937 16.457032-15.550781 25.507813-3.351563-4.996094-6.234375-10.316407-8.609375-15.859375 4.101562-8.824219 8.929687-17.347656 14.394531-25.382813 1.550781-2.28125.957031-5.390625-1.324219-6.945312-2.28125-1.554688-5.394531-.960938-6.945312 1.324219-3.882813 5.710937-7.457031 11.65625-10.707031 17.773437-1.816407-6.773437-2.902344-13.730469-3.203126-20.714844 8.003907-7.28125 15.589844-15.132812 22.5625-23.386719 1.78125-2.109374 1.515626-5.265624-.59375-7.046874-2.109374-1.78125-5.265624-1.515626-7.046874.59375-4.550782 5.386718-9.386719 10.578124-14.421876 15.5625.261719-2.238282.601563-4.46875 1.035157-6.683594.53125-2.707032-1.234375-5.335938-3.945313-5.867188-2.707031-.527344-5.335937 1.230469-5.867187 3.941406-.789063 4.015626-1.296875 8.078126-1.570313 12.152344l-11.519531-12.375c-1.882813-2.019531-5.046875-2.132812-7.070313-.25-2.019531 1.882813-2.132812 5.042969-.25 7.066406zm0 0"/></svg>