<svg height="512pt" viewBox="-17 0 512 512.00006" width="512pt" xmlns="http://www.w3.org/2000/svg"><path d="m363.492188 246.722656c-2.914063-7.894531-7.703126-14.734375-12.769532-21.964844l-.8125-1.160156c-.84375-1.207031-1.683594-2.414062-2.511718-3.648437-27.246094-39.953125-41.101563-88.609375-39.011719-137l.144531-3.328125-3.328125.207031c-2.507813.152344-5.777344.28125-9.460937.363281-8.398438.21875-20.5.328125-35.972657.328125h-.671875c-26.316406 0-56.632812-.285156-80.109375-.539062l-3.894531-.039063c-2.597656-.023437-4.90625-.046875-6.875-.0625l-3.808594-.023437.867188 3.707031c5.953125 25.535156 5.496094 52.996094-1.328125 79.417969-6.839844 26.484375-19.765625 50.699219-37.375 70.027343-.566407.617188-1.136719 1.230469-1.710938 1.851563l-1 1.074219c-4.378906 4.707031-8.515625 9.15625-11.183593 14.589844-4.3125 8.738281-4.3125 19.238281-4.3125 28.570312l.222656 221.417969 258.503906 4.449219.433594-223.464844c.023437-11.675782.042968-23.746094-4.035156-34.773438zm-38.390626 5.859375c-.222656 4.453125-.230468 8.925781-.242187 13.65625v.574219c-.011719 16.855469-.019531 34.285156-10.136719 48.742188-9.519531 13.734374-26.15625 23.082031-49.445312 27.785156-9.523438 1.925781-18.832032 2.902344-27.667969 2.902344-9.726563 0-19.007813-1.1875-27.585937-3.535157-19.128907-5.226562-35.523438-16.78125-44.980469-31.703125-13.941407-21.976562-13.292969-50.046875-12.773438-72.605468.023438-1.078126.890625-1.933594 1.96875-1.949219l52.878907-.851563-3.703126-41.28125-13.691406.992188-.171875-31.742188c-.011719-2.285156-.199219-4.859375-.402343-7.585937l-.011719-.132813c-.511719-6.84375-1.09375-14.601562 1.109375-20.070312 1.121094-2.796875 2.703125-4.589844 4.695312-5.332032.765625-.285156 1.574219-.421874 2.472656-.421874 2.933594 0 6.273438 1.523437 9.425782 3.160156.574218.304687 1.84375.878906 4.039062 1.875l.289063.132812c5.992187 2.726563 20.023437 9.105469 20.988281 10.949219.003906.011719.015625.078125.015625.324219l.371094 45.734375-13.425781.980469 3.558593 42.234374 2.78125-.023437c6.707031-.0625 13.386719-.109375 19.949219-.152344l14.160156-.101562 2.097656-29.488281-1.917968-.855469c-.671875-.300781-1.15625-.546875-1.605469-.820313-9.914063-5.820312-11.75-18.988281-11.960937-26.316406-.488282-17.59375 5.035156-41.503906 18.316406-52.429688 3.308594-2.71875 6.574218-4.097656 9.710937-4.097656 1.339844 0 2.664063.253906 3.9375.753906 9.132813 3.585938 14.375 18.65625 15.535157 27.316407 1.203124 8.917969 2.449218 18.132812 1.402343 27.257812-1.171875 10.183594-5.265625 18.757813-11.515625 24.136719-1.941406 1.667969-4.199218 3.03125-6.71875 4.058594l-1.726562.703125-2.113282 29.652343 3.257813-.035156c11.367187-.132812 21.613281-.332031 31.320313-.613281.695312-.019531 1.464843-.042969 2.292968-.042969 3.664063 0 8.285156.410156 11.5625 3.605469 4.21875 4.109375 3.871094 10.710937 3.660156 14.660156zm0 0" fill="#b2eaf9"/><path d="m284.425781 154.136719c.199219-4.734375-.101562-15.964844-7.109375-17.945313-.570312-.164062-1.167968-.25-1.777344-.25-4.183593 0-8.460937 3.851563-13.464843 12.117188-4.058594 6.703125-6.203125 14.378906-6.203125 22.195312 0 5.597656 1.09375 10.917969 3.257812 15.816406 1.929688 4.347657 4.511719 6.808594 7.453125 7.125.222657.023438.441407.035157.660157.035157 4.242187 0 7.28125-4.269531 9.078124-7.851563 4.84375-9.636718 7.648438-20.441406 8.105469-31.242187zm0 0" fill="#b2eaf9"/><g fill="#5bd0fc"><path d="m441.460938 290.070312c-18.003907-16.691406-41.886719-24.675781-66.832032-32.027343l-4.320312-1.269531.488281 4.476562c.339844 3.105469.554687 6.507812.652344 10.390625l.09375 3.566406 3.496093-.703125c.15625-.03125.308594-.046875.453126-.046875.148437 0 .292968.015625.410156.046875 30.589844 7.648438 56.640625 29.351563 69.6875 58.050782 7.25 15.945312 7.242187 31.433593 7.230468 47.839843v1.824219c-.003906 1.238281-.003906 2.484375 0 3.75l.019532 3.425781 3.394531-.46875c1.429687-.199219 2.894531-.300781 4.34375-.300781 1.808594 0 3.625.15625 5.402344.464844l2.933593.507812.53125-2.933594c2.988282-16.566406.785157-32.011718-2.167968-49.042968-3.144532-18.140625-12.3125-35.027344-25.816406-47.550782zm0 0"/><path d="m309.691406 238.328125c-.664062 0-1.335937.015625-1.988281.035156-20.609375.59375-41.539063.738281-61.777344.875l-1.46875.011719c-12.910156.085938-26.261719.175781-39.386719.382812l-48.851562.785157-.058594 2.894531c-.429687 21.691406.125 46.433594 12.253906 65.558594 8.9375 14.085937 24.488282 25.011718 42.664063 29.976562 8.242187 2.253906 17.164063 3.398438 26.515625 3.398438 8.53125 0 17.578125-.953125 26.886719-2.832032 22.230469-4.476562 38.03125-13.277343 46.957031-26.140624 9.402344-13.433594 9.410156-29.480469 9.421875-46.472657 0-4.234375 0-9.503906.257813-14.4375.222656-4.425781.214843-8.964843-2.472657-11.578125-2.214843-2.164062-5.769531-2.457031-8.953125-2.457031zm0 0"/><path d="m187.640625 76.066406.238281-2.769531c1.351563-15.707031 10.992188-30.871094 24.558594-38.628906 7.25-4.148438 15.707031-6.339844 24.460938-6.339844 8.222656 0 16.230468 1.957031 23.15625 5.65625 14.414062 7.714844 24.550781 23.253906 25.824218 39.589844l.21875 2.808593 2.816406-.042968c4.46875-.066406 7.796876-.140625 10.476563-.230469l2.804687-.09375.09375-2.808594c.726563-22.625-11.929687-45.632812-31.5-57.246093-9.921874-5.890626-21.65625-9.003907-33.929687-9.003907-12.53125 0-24.601563 3.230469-34.910156 9.34375-19.507813 11.566407-32.742188 33.167969-34.53125 56.371094l-.246094 3.203125 3.214844.027344c1.667969.011718 17.253906.164062 17.253906.164062zm0 0"/><path d="m36.398438 290.070312c-13.507813 12.523438-22.675782 29.410157-25.816407 47.546876-2.953125 17.035156-5.152343 32.480468-2.164062 49.046874l.527343 2.933594 2.9375-.507812c1.773438-.308594 3.589844-.464844 5.398438-.464844 1.453125 0 2.914062.101562 4.347656.300781l3.394532.46875.015624-3.425781c.007813-1.265625.003907-2.511719.003907-3.753906l-.003907-1.832032c-.007812-16.394531-.015624-31.882812 7.234376-47.828124 13.019531-28.640626 38.988281-50.3125 69.496093-58.003907.160157-.023437.320313-.054687.480469-.101562l2.128906-.59375.0625-2.210938c.101563-3.777343.34375-6.871093.757813-9.742187l.671875-4.636719-4.492188 1.328125c-23.0625 6.832031-47.078125 14.882812-64.980468 31.476562zm0 0"/></g><path d="m270.246094 235.042969 2.757812-.035157 2.105469-29.382812-3.699219.550781c-1.347656.199219-2.515625.296875-3.570312.296875-.960938 0-1.96875-.074218-2.996094-.21875l-3.1875-.453125-2.089844 29.339844 3.867188-.03125c2.269531-.019531 4.535156-.039063 6.8125-.066406zm0 0" fill="#bfc7d8"/><path d="m209.898438 235.5625c3.175781-.039062 6.351562-.082031 9.539062-.109375l3.230469-.03125-3.546875-42.25-15.703125 1.148437 3.703125 41.277344zm0 0" fill="#bfc7d8"/><path d="m258.140625 203.980469c2.8125 1.652343 6.183594 2.527343 9.742187 2.527343 5.597657 0 11.308594-2.15625 15.671876-5.910156 6.265624-5.382812 10.359374-13.957031 11.523437-24.136718 1.046875-9.160157-.195313-18.359376-1.398437-27.261719-.664063-4.898438-2.4375-10.65625-4.746094-15.402344-2.105469-4.328125-5.6875-9.910156-10.796875-11.917969-1.28125-.503906-2.613281-.761718-3.960938-.761718-3.152343 0-6.320312 1.347656-9.683593 4.117187-12.695313 10.445313-18.824219 34.277344-18.3125 52.421875.207031 7.324219 2.039062 20.484375 11.960937 26.324219zm3.9375-55.917969c2.003906-3.320312 7.332031-12.140625 13.414063-12.140625.597656 0 1.203124.085937 1.796874.253906 5.03125 1.429688 7.570313 7.8125 7.144532 17.96875-.464844 10.796875-3.269532 21.597657-8.117188 31.234375-2.539062 5.0625-5.757812 7.851563-9.058594 7.851563-.207031 0-.417968 0-.667968-.03125-3.734375-.402344-6.117188-4.105469-7.457032-7.140625-5.226562-11.804688-4.101562-26.363282 2.945313-37.996094zm0 0" fill="#d8deec"/><path d="m192.125 155.636719-2.980469.347656c.203125 2.726563.394531 5.300781.40625 7.582031l.167969 31.75 42.824219-3.117187-.375-46.199219-1.203125-.890625c-2.707032-2-10.820313-5.8125-19.183594-9.636719l-.617188-.285156c-1.738281-.785156-3.644531-1.648438-4.304687-1.988281-3.175781-1.644531-6.515625-3.167969-9.460937-3.167969-.898438 0-1.734376.144531-2.449219.417969-2.035157.75-3.574219 2.5-4.703125 5.332031-2.207032 5.476562-1.625 13.234375-1.113282 20.082031zm0 0" fill="#d8deec"/><path d="m474.175781 336.421875c-3.40625-19.644531-13.332031-37.925781-27.949219-51.480469-20.851562-19.335937-48.996093-27.578125-73.828124-34.847656-.191407-.054688-.382813-.074219-.570313-.105469-.496094-1.917969-1.070313-3.824219-1.765625-5.699219-3.230469-8.738281-8.507812-16.269531-13.605469-23.554687-1.101562-1.574219-2.203125-3.140625-3.277343-4.722656-27.613282-40.507813-40.917969-89.75-37.460938-138.652344 0-.003906 0-.003906 0-.007813.195312-2.753906-1.878906-5.148437-4.632812-5.339843-.613282-.042969-1.203126.035156-1.761719.199219.386719-24.828126-13.207031-49.363282-34.964844-62.273438-22.539063-13.375-53.078125-13.238281-75.984375.34375-21.660156 12.847656-36.332031 37.226562-38.007812 62.753906-1.019532.296875-1.9375.90625-2.59375 1.773438-.945313 1.242187-1.253907 2.859375-.835938 4.363281 14.25 51.261719.300781 109.796875-35.539062 149.121094-.835938.921875-1.6875 1.832031-2.535157 2.746093-4.578125 4.90625-9.308593 9.984376-12.464843 16.390626-.449219.90625-.84375 1.824218-1.214844 2.746093-24.761719 7.25-52.773438 15.503907-73.546875 34.765625-14.617188 13.558594-24.546875 31.835938-27.953125 51.480469-3.375 19.464844-5.78125 37.191406-.992188 57.003906.332032 1.371094 1.226563 2.539063 2.464844 3.214844.742188.40625 1.566406.613281 2.398438.613281.550781 0 1.101562-.09375 1.632812-.277344 5.203125-1.796874 10.9375-1.800781 16.140625-.011718 1.511719.519531 3.175781.285156 4.484375-.625 1.3125-.910156 2.105469-2.390625 2.144531-3.988282.09375-4.078124.089844-8.089843.089844-11.96875-.015625-15.617187-.023437-30.367187 6.59375-44.929687 11.667969-25.660156 35.566406-45.992187 62.738281-53.546875l.21875 220.578125c.003906 2.726563 2.191406 4.949219 4.917969 4.996094l262.492187 4.519531h.082032c1.308594 0 2.566406-.511719 3.5-1.429688.957031-.941406 1.496094-2.222656 1.5-3.5625l.4375-225.496093c0-.042969 0-.085938 0-.125 27.976562 7.105469 52.746094 27.792969 64.691406 54.066406 6.621094 14.558594 6.609375 29.3125 6.597656 44.929687-.003906 3.878907-.007812 7.890626.089844 11.96875.035156 1.59375.832031 3.078126 2.140625 3.988282 1.3125.910156 2.976563 1.144531 4.484375.625 5.207031-1.789063 10.9375-1.789063 16.140625.011718.53125.183594 1.085937.273438 1.636719.273438.828125 0 1.652344-.203125 2.398437-.613281 1.238281-.675781 2.128907-1.839844 2.460938-3.210938 4.789062-19.8125 2.382812-37.539062-.992188-57.003906zm-372.738281-64.855469c-.070312.011719-.136719.011719-.207031.03125-31.46875 7.867188-58.269531 30.191406-71.695313 59.71875-7.519531 16.535156-7.507812 32.339844-7.492187 49.074219 0 1.828125 0 3.683594-.007813 5.558594-3.539062-.484375-7.144531-.425781-10.667968.179687-2.890626-16.015625-.820313-30.757812 2.171874-47.996094 3.035157-17.496093 11.875-33.78125 24.894532-45.855468 17.523437-16.25 41.605468-24.230469 63.800781-30.808594-.492187 3.386719-.703125 6.777344-.796875 10.097656zm102.039062-252.679687c19.851563-11.773438 46.289063-11.910157 65.78125-.347657 18.722657 11.109376 30.71875 33.175782 30.03125 54.578126-2.960937.09375-6.472656.167968-10.414062.226562-1.347656-17.339844-12.0625-33.792969-27.40625-42-15.464844-8.273438-35.292969-7.988281-50.515625.722656-14.582031 8.339844-24.621094 24.25-26.0625 40.980469-2.128906-.023437-4.085937-.042969-5.832031-.0625-3.246094-.03125-6.15625-.0625-8.652344-.085937 1.703125-22.023438 14.410156-42.949219 33.070312-54.011719zm75.359376 54.566406c-25.136719.183594-60.324219-.089844-83.929688-.308594 1.390625-13.257812 9.433594-25.777343 21.011719-32.398437 12.304687-7.039063 28.332031-7.269532 40.832031-.582032 12.207031 6.527344 20.777344 19.515626 22.085938 33.289063zm85.691406 208.039063-.429688 220.417968-252.503906-4.347656-.21875-218.46875c-.007812-8.957031-.019531-19.109375 3.988281-27.238281 2.511719-5.089844 6.542969-9.417969 10.8125-14 .878907-.941407 1.753907-1.878907 2.613281-2.824219 36.625-40.1875 51.75-99.234375 39.414063-152.152344 2.890625.023438 6.539063.0625 10.753906.105469 19.613281.203125 52.332031.539063 80.140625.539063h.667969c15.476563-.003907 27.601563-.113282 36.050781-.328126 3.917969-.097656 7.128906-.222656 9.574219-.371093-2.117187 49.097656 11.808594 98.164062 39.523437 138.820312 1.101563 1.617188 2.222657 3.21875 3.347657 4.824219 4.957031 7.078125 9.636719 13.761719 12.417969 21.289062 3.890624 10.523438 3.867187 22.324219 3.847656 33.734376zm101.964844 104.636718c-3.523438-.605468-7.128907-.664062-10.667969-.179687-.007813-1.875-.007813-3.730469-.007813-5.558594.015625-16.734375.027344-32.539063-7.492187-49.078125-13.425781-29.527344-40.226563-51.851562-71.695313-59.714844-.738281-.1875-1.476562-.179687-2.179687-.039062-.089844-3.5-.277344-7.0625-.667969-10.636719 22.699219 6.683594 47.636719 14.652344 65.644531 31.351563 13.019531 12.074218 21.859375 28.359374 24.894531 45.855468 2.992188 17.242188 5.058594 31.984375 2.171876 48zm0 0"/><path d="m296.496094 231.753906c-5.945313.417969-11.886719.632813-17.828125.730469.78125-7.949219 1.722656-15.953125 2.828125-23.839844.0625-.429687.046875-.851562 0-1.265625 4.351562-2.386718 8.117187-5.859375 10.730468-10.195312 2.78125-4.601563 4.117188-9.785156 5.054688-14.246094 2.035156-9.671875 3.007812-19.589844 2.886719-29.472656-.089844-7.363282-.828125-16.84375-5.769531-24.851563-4.976563-8.058593-16.054688-14.726562-25.972657-11.921875-6.695312 1.890625-13.171875 8.441406-19.800781 20.027344-2.714844 4.742188-4.816406 9.824219-6.238281 15.109375-3.503907 13.015625-2.988281 27.695313 1.449219 41.335937 1.277343 3.925782 3.078124 8.402344 6.730468 11.855469 1.21875 1.152344 2.605469 2.144531 4.148438 2.984375-.035156.199219-.082032.394532-.09375.601563l-1.410156 23.847656c-8.332032-.078125-16.660157-.128906-24.992188.070313l-2.71875-34.585938c1.070312-.183594 2.144531-.382812 3.214844-.613281 1.171875-.253907 3.613281-.777344 5.449218-2.78125 1.980469-2.160157 2.207032-4.875 2.316407-6.179688.921875-11.089843.574219-23.328125-1.09375-38.507812-.292969-2.671875-.734375-6.710938-3.371094-10-2.230469-2.785157-5.332031-4.140625-7.597656-5.128907l-13.03125-5.699218c-3.285157-1.433594-7.003907-3.0625-11.257813-3.390625-5.53125-.425781-10.558594 1.632812-13.445312 5.503906-2.375 3.175781-2.867188 6.820313-3.171875 10.28125-.519531 5.953125-.84375 12.007813-.957031 18-.019532 1.109375-.046876 2.230469-.070313 3.363281-.203125 8.988282-.433594 19.179688 1.414063 28.355469 1.5625 7.765625 8.089843 9.324219 13.855468 9.324219.421875 0 .828125-.015625 1.238282-.03125.988281 10.855468 2.183593 21.800781 3.558593 32.625-16.109375.179687-32.230469.128906-48.367187.390625-2.683594.042969-4.855469 2.199219-4.917969 4.882812-.527344 22.96875-1.179687 51.550781 13.238281 74.277344 9.855469 15.542969 26.886719 27.566406 46.726563 32.988281 8.890625 2.429688 18.371093 3.644532 28.375 3.644532 9.015625 0 18.457031-.988282 28.257812-2.964844 24.070313-4.855469 41.339844-14.621094 51.316407-29.015625 10.65625-15.21875 10.667968-33.132813 10.679687-50.457031.003906-4.894532.007813-9.519532.242187-14.078126.214844-4.164062.617188-11.90625-4.574218-16.960937-6.6875-6.511719-18.601563-4.601563-27.03125-4.011719zm-44.449219-77.324218c1.199219-4.457032 2.96875-8.746094 5.257813-12.742188 7.058593-12.339844 12.03125-14.863281 13.839843-15.375.675781-.1875 1.382813-.277344 2.109375-.277344 4.691406 0 10.109375 3.742188 12.632813 7.832032 3.65625 5.917968 4.207031 13.648437 4.285156 19.71875.109375 9.152343-.789063 18.335937-2.675781 27.292968-.804688 3.824219-1.824219 7.820313-3.828125 11.140625-4.164063 6.898438-13.175781 10.53125-20.960938 8.453125-2.183593-.585937-4.007812-1.523437-5.269531-2.714844-2.023438-1.914062-3.203125-4.957031-4.089844-7.683593-3.847656-11.820313-4.308594-24.476563-1.300781-35.644531zm12.453125 56.480468c.921875.089844 1.84375.148438 2.765625.148438 1.289063 0 2.578125-.089844 3.855469-.261719-.96875 7.21875-1.808594 14.511719-2.507813 21.757813-1.796875 0-3.59375-.007813-5.390625-.019532zm-70.792969-21.738281c-1.628906-8.089844-1.421875-17.277344-1.222656-26.160156.023437-1.144531.050781-2.277344.070313-3.394531.109374-5.765626.417968-11.59375.917968-17.320313.1875-2.109375.417969-4.097656 1.222656-5.167969.789063-1.0625 2.664063-1.671875 4.667969-1.515625 2.5625.195313 5.335938 1.40625 8.015625 2.578125l13.035156 5.699219c1.457032.636719 3.109376 1.359375 3.796876 2.222656.753906.9375 1.015624 2.824219 1.238281 4.835938 1.59375 14.527343 1.933593 26.152343 1.0625 36.589843v.035157c-6.394531 1.363281-13.210938 1.746093-19.804688 2.113281-1.164062.066406-2.410156.214844-3.726562.375-5.625.671875-8.949219.742188-9.273438-.890625zm15.25 10.40625c2.183594-.125 4.386719-.261719 6.605469-.441406l2.644531 33.65625c-1.863281.046875-3.730469.085937-5.597656.117187-1.414063-11.046875-2.640625-22.238281-3.652344-33.332031zm109.160157 52.632813c-.25 4.816406-.253907 9.789062-.257813 14.59375-.011719 16.5-.019531 32.085937-8.882813 44.746093-8.464843 12.214844-23.636718 20.601563-45.085937 24.925781-19.132813 3.855469-36.636719 3.679688-52.019531-.523437-17.46875-4.773437-32.378906-15.230469-40.921875-28.695313-11.859375-18.699218-12.195313-43.1875-11.785157-63.882812l45.957032-.738281c13.441406-.21875 27.109375-.308594 40.328125-.394531 20.417969-.136719 41.527343-.277344 62.34375-.882813 3.355469-.09375 7.078125-.0625 8.753906 1.574219 1.800781 1.75 1.753906 5.707031 1.570313 9.277344zm0 0"/><path d="m262.183594 193.148438c1.640625.945312 3.492187 1.410156 5.402344 1.410156 2.386718 0 4.855468-.730469 7.089843-2.171875 4.179688-2.699219 7.328125-7.464844 9.625-14.5625 2.382813-7.355469 3.539063-15.085938 3.429688-22.964844-.074219-5.289063-.207031-15.136719-7.675781-18.9375-3.550782-1.808594-7.261719-1.910156-10.730469-.289063-9.296875 4.332032-13.257813 19.628907-13.960938 22.652344-1.800781 7.777344-1.878906 15.828125-.230469 23.285156 1.28125 5.796876 3.585938 9.582032 7.050782 11.578126zm2.925781-32.605469c1.519531-6.5625 5.09375-14.285157 8.4375-15.847657.238281-.109374.484375-.203124.796875-.203124.308594 0 .683594.089843 1.175781.34375 2.089844 1.0625 2.175781 7.4375 2.214844 10.160156.089844 6.691406-.929687 13.519531-2.945313 19.746094-1.539062 4.753906-3.40625 7.863281-5.539062 9.246093-.898438.578125-1.738281.6875-2.074219.496094-.222656-.128906-1.375-.972656-2.277343-5.070313-1.328126-6.011718-1.257813-12.535156.210937-18.871093zm0 0"/></svg>