<svg height="512pt" viewBox="-51 0 512 512.00041" width="512pt" xmlns="http://www.w3.org/2000/svg"><g fill="#fff"><path d="m116.628906 52.957031c-9.996094 5.96875-16.90625 20.074219-11.261718 31.558594 2.925781 5.9375 8.832031 10.691406 17.5625 14.136719 7.640624 3.007812 15.808593 4.53125 24.28125 4.53125 15.144531 0 29.871093-4.9375 41.472656-13.902344 8.296875 11.050781 22.027344 17.949219 35.859375 18.007812h.148437c13.75 0 27.46875-6.785156 35.804688-17.714843 5.007812 5.003906 12.269531 7.878906 19.925781 7.878906 5.789063 0 11.320313-1.601563 15.984375-4.625 10.703125-6.914063 16.449219-20.898437 13.96875-34-2.339844-12.378906-11.847656-23.542969-24.226562-28.441406-4.644532-1.832031-9.496094-2.722657-14.832032-2.722657-6.632812 0-13.914062 1.402344-22.269531 4.308594.691406-3.914062-.867187-8.316406-4.167969-11.765625-2.8125-2.960937-6.351562-4.953125-10.792968-7.035156-11.722657-5.5-22.003907-8.171875-31.433594-8.171875-2.4375 0-4.855469.183594-7.175782.546875-5.566406.875-11.058593 2.84375-16.332031 5.855469-3.585937 2.054687-7 4.5625-10.15625 7.453125-6.816406 6.257812-12.625 14.453125-17.269531 24.371093-.550781 1.1875-.910156 2.300782-1.0625 3.308594l-.347656 2.363282 1.609375 1.761718c-5.3125-1.753906-10.6875-2.640625-15.972657-2.640625-7.246093 0-13.929687 1.707031-19.316406 4.9375zm0 0"/><path d="m108.132812 449.59375-8.324218-49.613281c-.71875-4.3125-1.800782-10.828125 1.410156-15.464844 1.707031-2.472656 4.382812-4.144531 8.175781-5.109375 3.566407-.898438 7.257813-.941406 9.703125-.96875l7.6875-.085938-.222656-47.628906c-.007812-2.757812-.019531-6.535156 1.894531-9.25 2.882813-4.082031 8.863281-4.484375 12.4375-4.726562 26.039063-1.738282 52.695313-2.789063 79.230469-3.117188l3.601562-.046875 6.824219-21.355469-8.089843 1.363282c-4.652344.78125-9.335938 1.179687-13.917969 1.179687-1.125 0-2.308594-.023437-3.589844-.074219-16.59375-.734374-33.117187-6.59375-46.53125-16.496093l-4.507813-3.328125-2.792968 4.851562c-.949219 1.648438-2.015625 3.085938-3.246094 4.386719-6.785156 7.148437-16.050781 11.289063-24.226562 14.621094-.863282.355469-1.726563.703125-2.59375 1.050781l-.859376.34375c-7.917968 3.179688-15.394531 6.183594-22.050781 11.0625-13.605469 9.972656-20.910156 26.070312-25.753906 38.980469-1.355469 3.621093-2.65625 7.34375-3.914063 10.945312l-.074218.214844c-3.847656 11.046875-7.828125 22.46875-14.058594 32.558594-5.601562 9.09375-13.011719 17.082031-20.183594 24.808593l-.871094.941407c-.582031.625-1.160156 1.25-1.722656 1.863281-7.878906 8.542969-16.011718 17.796875-21.226562 28.714844-5.691406 11.914062-6.855469 24.589844-3.191406 34.78125 3.46875 9.617187 11.746093 17.117187 21.082031 19.105468l5.792969 1.230469.246093-5.914062c.570313-13.730469 5.402344-26.464844 13.976563-36.832031 7.605468-9.210938 18.195312-16.285157 29.8125-19.925782l8.582031-2.6875c.15625.199219.3125.402344.464844.609375l.300781 2.605469 2.3125 1.234375c3.601562 1.921875 7.457031 3.253906 11.453125 3.953125zm-41.375-19.28125c-5.726562 0-11.542968 2.011719-15.96875 5.511719 4.488282-3.558594 10.140626-5.519531 15.914063-5.519531 1.085937 0 2.183594.070312 3.253906.210937.335938.042969.671875.101563 1.003907.160156-.335938-.058593-.667969-.113281-1.003907-.15625-1.050781-.136719-2.125-.207031-3.199219-.207031zm6.609376.898438c-.351563-.09375-.699219-.183594-1.050782-.265626.355469.082032.703125.171876 1.050782.265626zm-1.347657-.328126c-.296875-.066406-.59375-.128906-.890625-.183593.296875.054687.59375.117187.890625.183593zm6.96875 2.632813c-1.757812-.976563-3.640625-1.746094-5.550781-2.285156 2.257812.628906 4.414062 1.554687 6.410156 2.761719zm0 0"/><path d="m378.132812 421.511719c-.574218-.628907-1.15625-1.25-1.734374-1.875l-.878907-.949219c-7.167969-7.722656-14.578125-15.710938-20.183593-24.804688-6.226563-10.089843-10.207032-21.511718-14.0625-32.582031l-.066407-.195312c-1.257812-3.597657-2.554687-7.320313-3.914062-10.941407-4.839844-12.910156-12.144531-29.003906-25.753907-38.976562-6.652343-4.882812-14.132812-7.882812-22.0625-11.066406l-.847656-.339844c-.867187-.351562-1.730468-.695312-2.621094-1.066406-8.085937-3.285156-17.277343-7.386719-24.074218-14.484375l-4.496094-4.695313-3.382812 5.550782c-4.195313 6.878906-7.558594 14.261718-9.996094 21.949218l-2.050782 6.460938 9.347657.070312c1.699219.011719 3.398437.023438 5.125.042969 5.5.074219 14.703125.199219 19.726562 5.984375 4.089844 4.710938 4.214844 11.71875 4.308594 16.839844l.84375 43.441406 4.777344.121094c4.132812.105468 7.519531.152344 10.652343.152344.855469 0 1.710938-.003907 2.570313-.011719 1.21875-.011719 2.476563-.1875 3.757813-.382813 1.160156-.175781 2.472656-.375 3.742187-.375 1.855469 0 3.265625.410156 4.558594 1.320313 5.101562 3.613281 4.359375 10.234375 3.25 16.195312l-10.25 54.699219 14.984375-5.703125 3.707031-1.398437-.523437-3.929688c.148437-.199219.300781-.398438.457031-.59375l8.585937 2.691406c11.617188 3.636719 22.207032 10.714844 29.8125 19.925782 8.449219 10.214843 13.414063 23.292968 13.976563 36.828124l.246093 5.914063 5.792969-1.230469c9.335938-1.984375 17.609375-9.480468 21.082031-19.109375 3.664063-10.183593 2.5-22.859375-3.191406-34.777343-5.21875-10.917969-13.351562-20.171876-21.214844-28.699219zm-47.4375 12.003906-.894531.5c2.339844-1.421875 4.914063-2.464844 7.601563-3.078125-2.3125.53125-4.597656 1.40625-6.707032 2.578125zm12.238282-3.203125c-1.078125 0-2.15625.070312-3.179688.203125-.375.050781-.753906.109375-1.132812.175781.367187-.066406.734375-.128906 1.105468-.175781 1.074219-.140625 2.167969-.210937 3.257813-.210937 5.773437 0 11.425781 1.960937 15.90625 5.527343-4.484375-3.558593-10.152344-5.519531-15.957031-5.519531zm-5.386719.59375c.34375-.074219.691406-.148438 1.042969-.210938-.351563.0625-.699219.132813-1.042969.210938zm0 0"/></g><path d="m311.40625 380.695312c-1.265625-.886718-2.746094-1.320312-4.527344-1.320312-1.039062 0-2.167968.140625-3.824218.386719-1.21875.179687-2.476563.371093-3.710938.375-.808594.007812-1.621094.011719-2.429688.011719-8.289062 0-16.652343-.308594-24.738281-.605469l-.589843-.023438c-5.214844-.191406-10.609376-.394531-15.890626-.5-28.664062-.585937-58.039062-.882812-87.3125-.882812-16.414062 0-32.996093.101562-49.28125.300781-7.164062.089844-14.292968.882812-17.886718 6.082031-2.964844 4.277344-2.316406 9.996094-1.394532 15.480469l1.742188 10.4375.246094.566406c3.378906 7.761719 13.242187 16.828125 29.917968 16.828125l.5-.003906c10.296876-.128906 20.179688-3.519531 29.734376-6.796875l.117187-.039062c1.660156-.574219 3.324219-1.148438 4.960937-1.699219 7.261719-2.414063 15.839844-4.878907 24.4375-4.878907 3.378907 0 6.59375.394532 9.550782 1.171876 6.644531 1.75 12.800781 5.578124 18.75 9.277343 7.804687 4.859375 15.871094 9.886719 25.289062 10.417969.570313.03125 1.136719.046875 1.703125.046875 8.652344 0 16.742188-3.746094 24.644531-7.40625 1.476563-.691406 2.960938-1.378906 4.429688-2.035156 7.210938-3.207031 13.566406-4.835938 18.898438-4.835938 3.253906 0 6.128906.582031 8.78125 1.769531l5.792968 2.597657 5.351563-28.523438c.855469-4.589843 2.289062-12.269531-3.261719-16.199219zm0 0" fill="#f9d889"/><path d="m127.859375 344.269531c4.902344 5.570313 12.164063 9.011719 19.429687 9.207031.246094.007813.496094.011719.746094.011719 8.769532 0 16.695313-4.199219 24.429688-8.292969 7.171875-3.804687 14.585937-7.738281 22.457031-8.011718.285156-.007813.566406-.011719.851563-.011719 8.183593 0 16.046874 3.832031 23.699218 7.566406 7.820313 3.800781 15.902344 7.730469 24.539063 7.730469.976562 0 1.953125-.046875 2.910156-.148438 4.46875-.464843 8.667969-2.050781 12.769531-3.597656 1.308594-.492187 2.617188-.988281 3.921875-1.441406 2.566407-.890625 6.4375-2.078125 10.394531-2.078125.414063 0 .835938.015625 1.253907.042969l5.449219.359375-.199219-9.171875c-.117188-6.398438-.535157-12.5-4.300781-16.835938-4.644532-5.347656-12.632813-5.898437-19.765626-5.992187-5.996093-.074219-12.089843-.113281-18.113281-.113281-32.464843 0-65.246093 1.097656-97.433593 3.253906-4.621094.3125-9.773438.957031-12.445313 4.734375-1.769531 2.519531-1.902344 5.691406-1.890625 9.28125l.0625 12.101562zm0 0" fill="#f9d889"/><path d="m266.730469 466.214844-1.414063-2.664063-132.464844.375s1.601563 6.292969 1.605469 6.316407c-.617187 6.875-4.644531 13.34375-11.96875 19.226562l-11.351562 9.125 14.5625-.226562c25.703125-.398438 52.058593-.855469 75.308593-1.261719 27.3125-.476563 54-.9375 80.199219-1.335938l12.199219-.1875-8.820312-8.429687c-5.652344-5.398438-11.175782-11.878906-17.855469-20.9375zm0 0" fill="#d8deec"/><path d="m201.558594 146.144531c16.792968 0 33.554687-1.695312 49.828125-5.039062 6.324219-1.308594 13.214843-3.390625 16.339843-8.882813 1.859376-3.265625 2.066407-7.171875 2.246094-10.605468l1.175782-21.105469.847656-4.046875-3.703125-1.636719c-1.644531-.730469-3.0625-1.511719-4.335938-2.390625l-3.515625-2.429688-2.949218 3.089844c-8.46875 8.886719-20.730469 14.191406-32.800782 14.191406h-.175781c-12.238281-.054687-24.582031-5.527343-33.027344-14.636718l-2.894531-3.125-3.542969 2.359375c-10.914062 7.273437-24.363281 11.273437-37.875 11.273437-2.144531 0-4.3125-.101562-6.433593-.300781l-6.441407-.605469 5.878907 36.246094 3.234374.78125c18.925782 4.554688 38.488282 6.863281 58.144532 6.863281zm0 0" fill="#d8deec"/><path d="m128.203125 212.421875 5.96875-3.484375c15.976563-9.324219 27.378906-25.378906 30.941406-43.347656 8.261719 7.65625 20.246094 11.996094 33.371094 11.996094 2.480469 0 4.996094-.160157 7.46875-.476563 15.292969-1.949219 29.089844-9.117187 39.808594-15.648437-.339844 10.390624 2.949219 20.871093 9.222656 29.152343 6.363281 8.414063 15.558594 14.40625 25.886719 16.867188l5.71875 1.367187.429687-5.867187c.613281-8.414063-.367187-17.386719-2.835937-25.949219-3.519532-12.175781-10.105469-24.429688-19.566406-36.429688l-2.269532-2.878906-3.433594 1.304688c-2.0625.785156-4.460937 1.445312-7.539062 2.085937-16.265625 3.339844-33.03125 5.035157-49.832031 5.035157-18.40625 0-36.769531-2.03125-54.582031-6.035157l-4.628907-1.015625-1.285156 4.5625c-13.425781 16.5625-18.898437 40.320313-14.285156 62zm0 0" fill="#935252"/><path d="m374.203125 489.511719c-2-9.941407-6.414063-19.253907-12.765625-26.929688-8.136719-9.84375-19.492188-17.136719-31.96875-20.539062l-3.519531-.941407-1.988281 3.054688-17.128907 6.527344-2.566406.605468-.980469 2.363282c-1.269531 3.058594-2.882812 5.214844-5.082031 6.796875-4.207031 3.027343-9.847656 3.039062-14.386719 3.050781l-19.246094.0625 6.21875 8.027344c9.789063 12.636718 23.339844 27.667968 41.425782 31.734375 5.847656 1.320312 11.925781 1.988281 18.058594 1.988281 13.941406 0 27.660156-3.402344 39.707031-9.859375l5.269531-.75zm0 0" fill="#ffd2bb"/><path d="m284.015625 218.136719c.8125-2.390625 1.484375-4.945313 1.996094-7.597657l.921875-4.777343-4.746094-1.054688c-9.761719-2.167969-18.804688-7.964843-24.808594-15.898437-5.175781-6.835938-8.234375-15.375-8.613281-24.046875l-.359375-8.296875-7.164062 4.199218c-13.265626 7.78125-24.597657 12.058594-35.671876 13.464844-2.433593.308594-4.890624.464844-7.296874.464844-11.03125 0-21.273438-3.289062-28.84375-9.261719l-6.046876-4.773437-1.898437 7.46875c-4.171875 16.4375-15.519531 31.085937-30.355469 39.179687l-4.234375 2.3125 1.996094 3.996094c7.652344 22.84375 26.925781 41.984375 50.355469 49.984375 8.613281 2.941406 17.773437 4.433594 27.21875 4.433594 15.445312 0 30.660156-3.976563 44.003906-11.5 16.410156-9.253906 28.324219-22.855469 33.546875-38.296875zm0 0" fill="#ffd2bb"/><path d="m113.257812 459.316406c-1.859374-1.746094-3.257812-4.101562-4.277343-7.191406l-1.265625-3.855469-4.125.460938c-6.058594-.675781-11.9375-2.808594-17.027344-6.175781-.132812-.109376-.273438-.214844-.421875-.3125l-1.808594-1.210938-2.121093.503906c-13.285157 3.144532-25.347657 10.621094-33.960938 21.050782-7.914062 9.574218-12.679688 21.3125-13.785156 33.945312l-.335938 3.816406 3.597656 1.316406c9.707032 3.554688 20.066407 5.355469 30.789063 5.355469 17.054687 0 34.128906-4.757812 48.085937-13.402343 10.898438-6.769532 17.070313-14.832032 17.855469-23.320313.007813-.039063 1.628907-6.304687 1.628907-6.304687l-6.394532-.0625c-7-.070313-12.472656-.878907-16.433594-4.613282zm0 0" fill="#ffd2bb"/><path d="m258.488281 279.773438-.949219-2.046876c-1.636718-3.53125-2.546874-7.5-3.523437-11.738281-.296875-1.28125-.601563-2.59375-.925781-3.925781l-1.476563-6.039062-5.582031 2.734374c-12.226562 5.992188-25.917969 9.160157-39.589844 9.160157-9.441406 0-18.597656-1.488281-27.203125-4.421875-5.070312-1.734375-10.007812-4.007813-14.675781-6.765625l-5.660156-3.339844-1.707032 6.347656c-.566406 2.105469-1.046874 4.160157-1.527343 6.25-.585938 2.5625-1.253907 5.46875-2.105469 8.105469l-1.078125 3.347656 2.785156 2.148438c14.144531 10.894531 31.742188 17.320312 49.550781 18.09375 1.242188.054687 2.503907.082031 3.75.082031 5.902344 0 11.835938-.632813 17.65625-1.839844l-5.652343 17.671875 6.910156-.058594c3.558594-.03125 7.121094-.042968 10.675781-.042968l7.082032.011718 1.058593-3.601562c1.746094-5.949219 4.101563-11.804688 7-17.398438l5.367188-10.363281.707031-.449219-.222656-.484374 1.242187-2.394532zm0 0" fill="#ed6d66"/><path d="m294.714844 418.054688c-5.824219 0-12.394532 1.667968-20.074219 5.089843-1.5.664063-3 1.359375-4.578125 2.09375-7.871094 3.644531-15.300781 7.089844-23.300781 7.089844-.515625 0-1.035157-.019531-1.515625-.042969-8.632813-.488281-16.023438-5.078125-23.875-9.960937-6.125-3.820313-12.457032-7.769531-19.578125-9.644531-3.199219-.835938-6.664063-1.261719-10.296875-1.261719-9.117188 0-18.359375 2.691406-25.386719 5.035156-1.472656.484375-2.9375.992187-4.410156 1.496094l-.691407.238281c-9.335937 3.199219-18.992187 6.511719-28.824218 6.640625l-.476563.003906c-7.296875 0-14.792969-2.335937-20.046875-6.253906l-9.976562-7.433594 5.570312 33.230469c1.023438 6.042969 2.183594 11.335938 6.011719 14.953125 4.511719 4.246094 11.253906 4.601563 17.773437 4.601563l152.773438-.429688c5.570312-.011719 10.5-.25 14.394531-3.054688 4.867188-3.507812 6.367188-9.667968 7.589844-16.207031l3.359375-17.929687.605469-4.089844-3.527344-1.417969c-3.382813-1.824219-7.257813-2.746093-11.519531-2.746093zm0 0" fill="#f7b36f"/><path d="m274.046875 342.203125c-3.316406 0-7.046875.734375-11.410156 2.25-1.347657.464844-2.683594.964844-4.042969 1.480469-4.066406 1.53125-7.902344 2.980468-11.984375 3.402344-.863281.089843-1.75.136718-2.628906.136718-7.945313 0-15.375-3.625-23.265625-7.472656-7.910156-3.847656-16.089844-7.824219-24.921875-7.824219-.320313 0-.644531.003907-.96875.015625-8.582031.289063-16.300781 4.386719-23.847657 8.390625-7.671874 4.066407-14.921874 7.90625-22.945312 7.90625l-.679688-.011719c-4.4375-.121093-9-1.65625-12.855468-4.320312l-7.890625-5.457031.179687 37.652343 5.019532-.042968c12.519531-.113282 24.824218-.171875 36.574218-.171875 29.792969.011719 59.171875.308593 87.3125.878906 5.4375.117187 10.902344.3125 16.476563.519531l9.183593.351563-.714843-37.109375-4.390625-.460938c-.710938-.074218-1.449219-.113281-2.199219-.113281zm0 0" fill="#f7b36f"/><path d="m403.855469 448.0625c-5.519531-11.558594-13.929688-21.140625-22.066407-29.960938-.867187-.9375-1.734374-1.875-2.605468-2.816406-7.003906-7.546875-14.246094-15.355468-19.59375-24.027344-5.9375-9.628906-9.65625-20.300781-13.59375-31.597656-1.289063-3.695312-2.621094-7.515625-4.023438-11.253906-5.089844-13.558594-12.808594-30.5-27.476562-41.253906-7.164063-5.253906-15.296875-8.519532-23.164063-11.675782-1.148437-.460937-2.292969-.917968-3.4375-1.386718-7.664062-3.125-16.355469-7-22.457031-13.429688-3.855469-4.0625-4.984375-8.980468-6.546875-15.789062-.496094-2.144532-1.007813-4.355469-1.640625-6.699219 15.25-9.742187 26.359375-23.230469 31.507812-38.433594 4.511719-13.339843 4.589844-29 .226563-44.097656-3.605469-12.484375-10.25-25.003906-19.738281-37.230469 1.070312-1.078125 2.023437-2.304687 2.824218-3.707031 2.429688-4.265625 2.691407-9.007813 2.902344-12.816406l1.09375-19.8125c7.914063.976562 16.242188-.632813 23.0625-5.046875 12.363282-7.996094 19.011719-24.089844 16.164063-39.128906-2.65625-14.03125-13.375-26.65625-27.308594-32.160157-10.058594-3.972656-21.132813-4.128906-34.472656-.417969-.886719-3.066406-2.597657-6.035156-5.019531-8.574218-3.539063-3.71875-7.996094-6.089844-12.285157-8.105469-15.628906-7.328125-29.203125-9.957031-41.503906-8.03125-6.175781.96875-12.242187 3.136719-18.03125 6.449219-3.914063 2.238281-7.632813 4.964844-11.058594 8.105468-7.304687 6.707032-13.503906 15.433594-18.417969 25.9375-.460937.980469-.824218 1.945313-1.085937 2.878907-11.742187-2.269531-23.121094-.664063-32.050781 4.679687-11.902344 7.121094-20.039063 24.113282-13.175782 38.058594 3.492188 7.097656 10.292969 12.675781 20.214844 16.582031 2.859375 1.125 5.785156 2.046875 8.753906 2.777344l5.390626 33.203125c.140624.875.519531 1.671875 1.054687 2.332031-13.777344 17.71875-19.128906 42.125-14.527344 64.582031-.035156.152344-.085937.296876-.105469.457032-.183593 1.417968.257813 2.761718 1.09375 3.789062.394532 1.484375.832032 2.960938 1.3125 4.421875 5.261719 15.878907 15.792969 30.078125 29.382813 40.414063-.226563.367187-.417969.757812-.546875 1.1875-.867188 2.996094-1.5 5.746094-2.109375 8.40625-1.566406 6.808594-2.695313 11.726562-6.550781 15.789062-6.101563 6.429688-14.789063 10.304688-22.457032 13.429688-1.144531.46875-2.289062.925781-3.4375 1.386718-7.867187 3.15625-16 6.421876-23.164062 11.675782-14.664062 10.753906-22.386719 27.695312-27.476562 41.253906-1.402344 3.738281-2.734376 7.558594-4.023438 11.253906-3.933594 11.296875-7.652344 21.96875-13.59375 31.597656-5.347656 8.671876-12.589844 16.480469-19.589844 24.027344-.871094.941406-1.742187 1.878906-2.609375 2.816406-8.136719 8.820313-16.542969 18.402344-22.066406 29.957032-6.359375 13.3125-7.558594 27.027344-3.382813 38.628906 4.867188 13.507812 17.539063 22.925781 30.546876 22.921875.519531 0 1.039062-.015625 1.558593-.042969 1.683594-.101562 3.121094-1.023437 3.953125-2.355468 9.609375 3.199218 19.769532 4.789062 29.960938 4.789062 13.71875 0 27.46875-2.859375 39.941406-8.421875.160156.015625.316406.046875.480469.046875h.078125c30.519531-.449219 61.839844-.992188 92.128906-1.519531 30.28125-.523438 61.59375-1.066407 92.101562-1.515625.066407 0 .121094-.015625.183594-.019532 5.453125 3.511719 11.339844 6.199219 17.738282 7.640626 6.253906 1.40625 12.675781 2.097656 19.113281 2.097656 13.902343 0 27.855469-3.234375 40.214843-9.46875.027344 1.175781.027344 2.355468-.015624 3.542968-.105469 2.71875 1.984374 5.023438 4.703124 5.183594.519532.03125 1.042969.046875 1.5625.046875 13.007813-.003906 25.679688-9.417969 30.542969-22.925781 4.175781-11.601562 2.976563-25.316406-3.382812-38.625zm-94.105469-52.085938c-1.289062 6.867188-2.085938 13.984376-3.179688 20.957032-8.203124-2.257813-17.0625-2.320313-25.269531-.125-4.398437 1.175781-8.496093 2.941406-12.457031 4.644531-4.59375 1.976563-8.933594 3.847656-13.425781 4.703125-9.796875 1.867188-19.53125-1.355469-25.964844-4.390625-3.347656-1.578125-6.601563-3.425781-10.050781-5.386719-8.789063-4.988281-17.871094-10.148437-28.59375-10.613281-10.496094-.460937-19.777344 3.707031-28.765625 7.734375-5.496094 2.460938-10.6875 4.789062-16.050781 6.074219-13.53125 3.246093-28.792969-.851563-38.878907-10.4375-.25-.238281-.519531-.445313-.800781-.621094-.519531-3.105469-1.039062-6.214844-1.5625-9.332031-.75-4.476563-1.324219-9.074219.570312-11.816406 2.316407-3.339844 8.019532-3.863282 13.839844-3.933594 16.34375-.191406 32.90625-.292969 49.222656-.296875 28.960938 0 58.28125.289062 87.210938.882812 5.441406.109375 11.007812.316407 16.394531.515625 8.96875.332032 18.238281.671875 27.390625.601563 1.601563-.011719 3.125-.238281 4.46875-.4375 2.617188-.390625 3.847656-.5 4.683594.085937 2.4375 1.726563 2.273438 5.5625 1.21875 11.191406zm-5.050781 30.84375c-1.246094 5.472657-2.769531 10.902344-3.820313 16.492188-1.03125 5.511719-2.234375 10.660156-5.597656 13.078125-2.679688 1.929687-6.785156 2.097656-11.480469 2.109375l-152.417969.429688c-5.90625.007812-11.484374-.21875-14.695312-3.246094-2.707031-2.550782-3.640625-7.011719-4.503906-12.148438-1.160156-6.933594-2.316406-13.820312-3.46875-20.707031 11.707031 7.105469 26.328125 9.660156 39.609375 6.472656 6.269531-1.503906 12.132812-4.132812 17.808593-6.675781 8.289063-3.714844 16.125-7.214844 24.242188-6.867188 8.3125.359376 15.976562 4.710938 24.085938 9.316407 3.460937 1.964843 7.039062 3.996093 10.726562 5.734375 8.277344 3.902344 16.527344 5.894531 24.253906 5.894531 2.6875 0 5.308594-.238281 7.847656-.722656 5.570313-1.0625 10.621094-3.238281 15.507813-5.339844 3.800781-1.636719 7.394531-3.183594 11.089844-4.171875 6.765625-1.808594 14.09375-1.664062 20.8125.351562zm-28.441407-52.136718c-1.300781-.046875-2.609374-.09375-3.902343-.140625-5.421875-.203125-11.03125-.410157-16.558594-.523438-27.714844-.566406-55.800781-.84375-83.5625-.878906-1.285156-.003906-2.570313-.003906-3.855469-.003906-12.136718 0-24.40625.058593-36.621094.167969.304688-.003907-.019531-10.09375-.203124-21.128907 5.4375 3.347657 11.796874 5.171875 18.1875 5.171875 1.917968 0 3.835937-.164062 5.734374-.5 7.550782-1.332031 14.007813-5.050781 20.25-8.644531 5.984376-3.449219 11.636719-6.707031 17.71875-7.5625 3.894532-.542969 7.882813-.066406 11.539063 1.382813 3.28125 1.304687 6.351563 3.398437 9.597656 5.613281 3.066407 2.09375 6.238281 4.257812 9.839844 5.921875 8.929687 4.125 19.324219 4.496094 28.519531 1.023437 2.148438-.8125 4.136719-1.789062 6.058594-2.734375 2.140625-1.054687 4.160156-2.050781 6.195312-2.710937 3.445313-1.125 7.191407-1.324219 10.75-.617188-.046874 1.011719-.082031 1.988281-.082031 2.910157.003907 1.839843.15625 23.246093.394531 23.253906zm.195313-36.222656c-4.792969-.714844-9.757813-.332032-14.355469 1.167968-2.710937.882813-5.152344 2.085938-7.515625 3.246094-1.785156.878906-3.476562 1.710938-5.171875 2.351562-6.605468 2.496094-14.378906 2.21875-20.792968-.746093-2.847657-1.3125-5.542969-3.152344-8.398438-5.101563-3.554688-2.425781-7.230469-4.933594-11.542969-6.648437-5.265625-2.089844-11.011719-2.777344-16.621093-1.988281-8.003907 1.125-14.773438 5.023437-21.320313 8.796874-5.746094 3.308594-11.171875 6.433594-16.996094 7.460938-7.601562 1.34375-15.726562-1.210938-21.1875-6.671875-.335937-.332031-.710937-.585937-1.105469-.808594.027344-7.714843.289063-14.015625 1.101563-15.164062 1.324219-1.878907 4.957031-2.367188 8.6875-2.617188 38.160156-2.554687 76.902344-3.609375 115.148437-3.128906 6.03125.074219 12.738282.472656 16.042969 4.253906 3.449219 3.953125 4.109375 9.757813 4.027344 15.597657zm-47.933594-49.113282c-8.128906 1.515625-17.058593 1.796875-28.949219.910156-13.246093-.988281-29.941406-3.417968-41.582031-13.53125-.003906-.003906-.007812-.007812-.015625-.011718 1.046875-2.984375 1.777344-6.15625 2.570313-9.601563.453125-1.96875.917969-3.992187 1.476562-6.074219 4.9375 2.910157 10.164063 5.332032 15.605469 7.191407 9.207031 3.144531 18.976562 4.6875 28.8125 4.6875 14.3125 0 28.753906-3.28125 41.792969-9.671875.324219 1.3125.621093 2.601562.910156 3.867187.976563 4.253907 2.15625 7.945313 3.78125 11.414063-6.316406 5.273437-14.722656 9.015625-24.402344 10.820312zm15.109375 15.617188c-.523437 1.039062-1.171875 2.347656-1.558594 3.894531-5.558593-.054687-11.136718-.238281-16.699218-.34375l3.074218-9.003906c.640626-.105469 1.277344-.214844 1.910157-.332031 7.144531-1.332032 13.75-3.601563 19.570312-6.683594zm-118.867187-210.964844c-7.535157-2.96875-12.550781-6.902344-14.90625-11.695312-4.363281-8.867188 1.417969-20.324219 9.335937-25.058594 8.175782-4.894532 19.824219-5.578125 31.15625-1.835938 2.335938.773438 4.882813-.269531 6.011719-2.453125.976563-1.894531.636719-4.160156-.761719-5.679687.066406-.398438.242188-1.0625.652344-1.9375 4.359375-9.3125 9.785156-16.988282 16.125-22.804688 2.875-2.640625 5.992188-4.929687 9.261719-6.796875 4.726562-2.703125 9.644531-4.472656 14.609375-5.246093 10.265625-1.609376 21.949218.75 35.714844 7.203124 3.933593 1.847657 7.019531 3.566407 9.289062 5.945313 2.179688 2.289063 3.28125 5.144531 2.875 7.453125-.304688 1.742188.335938 3.519531 1.683594 4.667969 1.351562 1.148437 3.203125 1.496093 4.878906.917969 13.738281-4.753907 24.421875-5.277344 33.621094-1.640626 10.820312 4.273438 19.125 13.976563 21.15625 24.71875 2.113281 11.152344-2.730469 23.023438-11.769532 28.875-9.210937 5.960938-22.242187 4.824219-29.660156-2.59375-1.019531-1.019531-2.4375-1.550781-3.867187-1.453124-1.441407.097656-2.765625.808593-3.640625 1.957031-7.421875 9.71875-19.609375 15.742187-31.835938 15.742187-.050781 0-.101562 0-.152344 0-12.28125-.050781-24.488281-6.183594-31.859374-16.003906-.800782-1.070312-2.003907-1.777344-3.328126-1.953125-.222656-.03125-.449218-.046875-.671874-.046875-1.097657 0-2.175782.363281-3.054688 1.042969-16.992188 13.136719-40.882812 16.542969-60.863281 8.675781zm141.511719 5.398438c-.050782.242187-.101563.484374-.117188.738281l-1.171875 21.199219c-.167969 3.046874-.339844 6.199218-1.605469 8.414062-2.148437 3.773438-7.78125 5.382812-13.011718 6.457031-34.765626 7.148438-71.265626 6.523438-105.78125-1.785156l-4.316407-26.582031c16.566407 1.554687 33.679688-2.554688 47.554688-11.792969 9.320312 10.058594 22.960937 16.183594 36.671875 16.242187h.191406c13.554688 0 27.066406-5.921874 36.421875-15.734374 1.621094 1.109374 3.359375 2.046874 5.164063 2.84375zm-121.34375 47.410156c.453124-.554688.757812-1.179688.933593-1.824219 18.234375 4.101563 36.957031 6.160156 55.679688 6.160156 17.078125 0 34.152343-1.710937 50.839843-5.140625 2.753907-.566406 5.601563-1.273437 8.3125-2.304687 9.058594 11.492187 15.34375 23.175781 18.683594 34.71875 1.277344 4.429687 2.148438 8.980469 2.554688 13.574219.160156 1.816406.515625 3.902343.765625 5.976562-9.355469-2.394531-17.566407-7.519531-23.21875-14.535156-6.09375-7.5625-9.042969-17.484375-7.894531-26.542969.257812-2.035156-.753907-4.023437-2.550782-5.011719-1.804687-.992187-4.023437-.777344-5.601562.535156-10.097656 8.375-19.480469 13.945313-28.691406 17.027344-11.015626 3.683594-22.148438 3.78125-31.34375.28125-2.898438-1.101562-9.8125-4.324218-11.484376-10.410156-.625-2.277344-2.757812-3.804688-5.117187-3.667969-2.355469.140625-4.292969 1.90625-4.648437 4.242188-1.9375 12.757812-8.011719 24.828125-17.097657 33.992187-2.886719 2.910156-8.109375 7.339844-13.902343 8.335938-2.402344-19.382813 1.304687-40.007813 13.78125-55.40625zm-11.800782 65.222656c7.839844-1.421875 14.464844-6.515625 19.023438-11.113281 7.800781-7.867188 13.691406-17.578125 17.148437-28.089844 2.859375 2.542969 6.421875 4.671875 10.539063 6.238281 11.355468 4.324219 24.875 4.273438 38.078125-.144531 7.816406-2.613281 15.652343-6.738281 23.761719-12.527344 1.058593 8.335938 4.503906 16.472657 10.015624 23.316407 7.304688 9.0625 17.964844 15.566406 30.011719 18.316406.101563.019531.203125.019531.304688.035156-4.34375 18.863281-17.039063 34.449219-34 44.011719-20.484375 11.554687-45.589844 14.054687-67.152344 6.6875-6.335937-2.164063-12.367187-5.199219-17.910156-8.953125-12.566407-8.5-25.117188-22.578125-29.820313-37.777344zm-103.855468 287.175781c-7.476563-1.59375-14.492188-7.789062-17.417969-15.910156-3.21875-8.933594-2.125-20.203125 2.996093-30.925781 4.921876-10.300782 12.773438-19.226563 20.394532-27.488282.859375-.933593 1.722656-1.863281 2.585937-2.796874 7.332031-7.902344 14.914063-16.074219 20.773438-25.578126 6.511719-10.558593 10.585937-22.253906 14.527343-33.558593 1.265626-3.640625 2.578126-7.402344 3.941407-11.03125 4.601562-12.257813 11.488281-27.507813 24.027343-36.699219 6.148438-4.507812 13.347657-7.398438 20.972657-10.460938 1.167969-.464843 2.332031-.933593 3.488281-1.40625 8.632812-3.519531 18.46875-7.9375 25.9375-15.804687.59375-.625 1.128906-1.253906 1.636719-1.890625 13.664062 10.859375 31.496093 13.515625 45.6875 14.574219 4.71875.351562 9.019531.53125 13.023437.53125 1.949219 0 3.824219-.046875 5.648438-.132813l-2.550782 7.464844c-.042968.125-.054687.25-.085937.375-7.695313.058594-15.386719.234375-23.078125.507812-17.089844.601563-34.160156 1.640626-51.21875 2.785157-4.171875.277343-11.933594.796875-16.191406 6.828125-2.847656 4.035156-2.824219 8.949218-2.808594 12.199218l.195312 42.617188c-.90625.007812-1.816406.015625-2.714843.027344-5.316407.0625-16.375.195312-21.945313 8.242187-4.367187 6.308594-3.019531 14.351563-2.214844 19.160157l7.148438 42.617187c-3.476562-.617187-6.847656-1.789063-9.964844-3.449219-.097656-.867187-.417968-1.707031-.953125-2.425781-4.902343-6.578125-12.382812-10.960937-20.515625-12.023437-8.132812-1.058594-16.488281 1.253906-22.914062 6.355468-2.164063 1.714844-2.523438 4.859375-.808594 7.023438 1.714844 2.164062 4.863281 2.527344 7.023438.808594 4.257812-3.375 10.015624-4.976563 15.402343-4.269532 2.527344.328125 5.003907 1.167969 7.257813 2.417969-12.472656 3.902344-23.855469 11.441406-32.171875 21.5-9.234375 11.175781-14.503907 25.144531-15.113281 39.816406zm84.6875-9.839843c-21.855469 13.535156-50.375 16.4375-74.515626 7.597656 1.003907-11.515625 5.371094-22.390625 12.652344-31.199219 7.9375-9.597656 19.148438-16.492187 31.269532-19.371094.085937.0625.152343.140625.238281.199219 5.8125 3.898438 12.5625 6.359375 19.519531 7.117188.1875.019531.367188.03125.550781.03125.191407 0 .375-.03125.5625-.054688 1.089844 3.308594 2.765625 6.609375 5.59375 9.273438 5.4375 5.125 12.679688 5.894531 19.816407 5.964843-.074219.273438-.136719.550781-.164063.839844-.773437 8.730469-8.871094 15.476563-15.523437 19.601563zm86.960937 2.738281c-24.746094.429687-50.175781.871093-75.300781 1.261719 8.351562-6.710938 13.09375-14.464844 13.824218-22.71875.054688-.605469-.019531-1.1875-.167968-1.738282l123.03125-.347656c.085937.140625.152344.289062.253906.425781 5.507812 7.480469 11.628906 15.15625 18.566406 21.78125-26.714844.410157-53.851562.882813-80.207031 1.335938zm166.734375-1.082031c-16.386719 8.804687-36.191406 11.511718-54.34375 7.429687-15.511719-3.492187-27.761719-15.96875-38.574219-29.925781l9.09375-.027344c4.972657-.011719 11.785157-.035156 17.289063-3.992188 3.269531-2.347656 5.34375-5.472656 6.78125-8.9375.171875-.046874.347656-.082031.519531-.148437l17.316406-6.589844c1.035157-.394531 1.851563-1.101562 2.410157-1.964843 11.414062 3.113281 21.90625 9.785156 29.4375 18.898437 5.902343 7.136719 9.882812 15.636719 11.71875 24.730469-.558594.082031-1.117188.242187-1.648438.527344zm30.171875-7.726563c-2.925781 8.121094-9.941406 14.316406-17.414063 15.910156-.613281-14.671875-5.882812-28.640625-15.121093-39.8125-8.3125-10.058593-19.695313-17.601562-32.167969-21.503906 2.25-1.246094 4.726562-2.085937 7.253906-2.417969 5.386719-.703125 11.144532.894532 15.402344 4.273438 2.164062 1.714844 5.308594 1.351562 7.023438-.8125 1.71875-2.160156 1.355468-5.308594-.808594-7.023438-6.425782-5.097656-14.773438-7.414062-22.910156-6.355468-8.136719 1.0625-15.613282 5.445312-20.515626 12.023437-.789062 1.058594-1.117187 2.367187-.949218 3.640625l-6.648438 2.53125 8.605469-45.929688c.9375-5.007812 2.886719-15.425781-5.277344-21.199218-4.199219-2.96875-8.667969-2.300782-11.933593-1.816406-1.113282.167968-2.167969.324218-3.070313.332031-4.3125.035156-8.675781-.027344-13.035156-.136719l-.75-38.664062c-.105469-5.558594-.269531-13.960938-5.527344-20.015626-5.6875-6.546874-15.800781-8.203124-24.085937-7.722656-.988282.058594-1.976563.089844-2.96875.128906l8.875-17.574218c6.070312 5.683594 14.929687 9.191406 22.3125 12.199218 1.160156.476563 2.324218.941407 3.488281 1.410157 7.625 3.058593 14.828125 5.949219 20.976562 10.457031 12.535157 9.191406 19.425781 24.441406 24.023438 36.699219 1.363281 3.628906 2.675781 7.394531 3.945312 11.03125 3.9375 11.308593 8.011719 23 14.523438 33.558593 5.863281 9.507813 13.441406 17.675782 20.773437 25.582032.863282.929687 1.730469 1.863281 2.589844 2.792968 7.617188 8.261719 15.46875 17.1875 20.394531 27.488282 5.121094 10.722656 6.214844 21.992187 2.996094 30.925781zm0 0"/></svg>