<svg height="512pt" viewBox="-19 0 512 512.00021" width="512pt" xmlns="http://www.w3.org/2000/svg"><path d="m320.636719 166.34375 4.601562.382812c6.933594.578126 14.945313 1.347657 22.320313 3.203126l4.980468 1.25 16.867188-76.191407-48.34375-4.605469zm0 0" fill="#b2eaf9"/><path d="m298.90625 72.78125c-1.765625-1.433594-4.101562-1.6875-6.75-1.855469l-28.144531-1.660156 1.117187 94.621094 4.847656.082031c9.085938.15625 18.414063.472656 27.71875.941406l5.324219.269532-1.226562-83.199219c-.058594-3.480469-.324219-7.058594-2.886719-9.199219zm0 0" fill="#b2eaf9"/><path d="m200.160156 165.519531 5.261719-.300781c9.175781-.523438 18.480469-.902344 27.65625-1.132812l4.796875-.117188 1.265625-86.902344-39.214844 6.839844zm0 0" fill="#b2eaf9"/><path d="m171.070312 88.222656-.171874-.121094-.179688-.109374c-1.25-.742188-2.5625-.828126-3.441406-.828126-.78125 0-1.765625.078126-3.007813.238282l-32.503906 4.234375c-3.46875.445312-5.898437 1.121093-7.304687 3.097656l-.183594.261719-.152344.277344c-.8125 1.53125-.824219 3.207031-.5625 5.738281l6.941406 71.789062 6.1875-.882812c11.902344-1.648438 23.960938-3.058594 35.832032-4.1875l4.730468-.449219-3.210937-70.753906c-.175781-3.835938-.75-6.714844-2.972657-8.304688zm0 0" fill="#b2eaf9"/><path d="m441.640625 356.386719-2.078125-1.324219c-6.160156-6.082031-14.945312-9.292969-25.410156-9.292969-7.453125 0-13.765625 1.601563-17.75 2.945313-8.820313 2.972656-16.644532 7.40625-24.972656 12.128906-4.824219 2.726562-9.808594 5.550781-14.863282 7.953125-9.550781 4.542969-18.878906 6.941406-26.976562 6.941406-5.316406 0-10.25-1.019531-14.65625-3.03125-6.644532-3.039062-12.1875-8.4375-17.609375-13.71875-6.726563-6.539062-13.679688-13.304687-22.972657-15.699219-2.410156-.621093-4.914062-.933593-7.441406-.933593-12.804687 0-25.234375 8.015625-36.863281 16.226562-9.914063 6.996094-21.597656 14.152344-33.132813 14.152344-3.089843 0-6.097656-.535156-8.9375-1.585937-7.757812-2.878907-13.464843-9.574219-18.984374-16.050782-.761719-.890625-1.523438-1.785156-2.277344-2.652344-5.667969-6.523437-14.476563-15.203124-25.476563-15.265624h-.117187c-9.882813 0-17.582032 6.613281-25.027344 13.007812l-.277344.238281c-2.320312 1.984375-4.722656 4.035157-7.101562 5.800781-8.601563 6.351563-20.214844 9.847657-32.695313 9.847657-14.503906 0-28.597656-4.675781-38.667969-12.824219l-7.402343-5.992188-.714844 9.496094c-.472656 6.277344-.613281 12.777344-.421875 19.316406.140625 4.898438.445312 10.15625.921875 16.078126l.164063 2.019531 1.597656 1.394531c6.289062 7.28125 16.230468 11.289062 28.019531 11.289062 2.933594 0 5.871094-.253906 8.730469-.757812 10.765625-1.894531 20.753906-6.625 30.417968-11.199219 1.960938-.929687 3.921876-1.851562 5.886719-2.757812 9.59375-4.414063 20.960938-8.925781 32.5-8.925781 1.304688 0 2.601563.058593 3.859375.175781 12.308594 1.136719 23.695313 7.777343 34.710938 14.199219 12.597656 7.335937 24.496094 14.265624 38.082031 14.265624 1.691406 0 3.390625-.113281 5.054687-.332031 9.742188-1.296875 18.042969-6.246093 26.824219-11.484375 9.148438-5.445312 18.605469-11.078125 28.878907-11.078125.351562 0 .707031.003907 1.0625.019531 10.566406.386719 19.328124 6.410157 28.613281 12.796876l.109375.074218c6.339844 4.34375 12.898437 8.835938 20.148437 11.449219 5.367188 1.929687 10.980469 2.867187 17.164063 2.867187 13.738281 0 27.867187-4.777343 41.164062-9.671874 12.722656-4.683594 27.140625-9.992188 41.503906-9.992188 4.171876 0 8.171876.464844 11.894532 1.378906l6.042968 1.488282.144532-6.21875c.261718-11.464844.089844-22.96875-.515625-34.191407zm0 0" fill="#ff8984"/><path d="m421.234375 418.769531c-9.445313 0-20.316406 2.59375-33.234375 7.925781-2.128906.875-4.257812 1.785157-6.390625 2.699219l-.695313.296875c-12.714843 5.4375-25.863281 11.0625-39.324218 11.0625-1.207032 0-2.445313-.042968-3.660156-.132812-11.589844-.894532-22.523438-6.253906-33.148438-11.460938-12.0625-5.914062-23.457031-11.503906-36.476562-11.777344-.339844-.007812-.679688-.011718-1.015626-.011718-12.714843 0-24.703124 5.25-36.332031 10.339844-11.230469 4.910156-22.839843 9.984374-34.785156 9.984374-.988281 0-1.980469-.035156-2.949219-.101562-11.695312-.832031-22.476562-6.765625-32.9375-12.523438-11.4375-6.289062-22.242187-12.226562-34.859375-12.851562-.742187-.039062-1.480469-.058594-2.214843-.058594-11.597657 0-22.117188 4.402344-33.25 9.0625l-.355469.148438c-3.386719 1.410156-6.890625 2.871094-10.324219 4.136718-7.554688 2.785157-14.761719 4.195313-21.421875 4.195313-6.574219 0-12.25-1.371094-16.871094-4.078125l-8.363281-4.902344.871094 9.65625c1.277344 14.203125 1.664062 25.066406 1.25 35.222656l-.226563 5.523438 5.519531-.339844c31.441407-1.925781 63.054688-3.367187 93.960938-4.285156 24.621094-.730469 49.214844-1.15625 73.09375-1.277344 3.679688-.019531 7.359375-.027344 11.050781-.027344 57.292969 0 115.394531 2.253907 171.585938 4.433594l.117187.003906c12.953125.507813 26.203125 1.019532 39.445313 1.507813l4.277343.15625.808594-4.199219c2.546875-13.199218 4.519532-26.75 5.867188-40.277344l.371094-3.722656-3.472657-1.402344c-4.816406-1.9375-10.167969-2.925781-15.910156-2.925781zm0 0" fill="#ff8984"/><path d="m73.652344 340.183594c6.734375 0 13.152344-1.304688 19.078125-3.875 6.824219-2.964844 12.578125-7.230469 18.667969-11.746094l.128906-.09375c2.5625-1.910156 5.464844-4.074219 8.398437-6.027344 8.546875-5.695312 16.472657-8.585937 23.5625-8.585937 1.925781 0 3.820313.21875 5.632813.644531 8.679687 2.046875 15.019531 8.550781 21.730468 15.4375 6.125 6.289062 12.457032 12.789062 20.808594 15.722656 3.21875 1.132813 6.691406 1.707032 10.320313 1.707032 7.910156 0 16.550781-2.644532 25.691406-7.859376 4.1875-2.394531 8.359375-5.195312 12.0625-7.6875 6.011719-4.035156 12.230469-8.210937 18.90625-11.121093 5.492187-2.394531 11.550781-3.714844 17.066406-3.714844 6.382813 0 11.792969 1.695313 16.074219 5.03125 3.671875 2.867187 6.289062 6.71875 9.054688 10.796875 2.46875 3.632812 5.015624 7.386719 8.40625 10.417969 5.6875 5.074219 13.46875 7.757812 22.5 7.757812 6.832031 0 14.472656-1.566406 21.507812-4.40625 6.144531-2.476562 12.035156-5.691406 17.734375-8.800781l.421875-.230469c7.058594-3.875 14.363281-7.878906 22.136719-10.472656 3.6875-1.226563 8.050781-1.875 12.613281-1.875 8.945312 0 17.710938 2.429687 24.050781 6.664063l10.183594 6.800781-2.523437-11.980469c-2.078126-9.855469-5.234376-17.796875-9.648438-24.269531-14.917969-21.847657-44.183594-28.285157-70.84375-31.699219-41.703125-5.339844-84.238281-8.046875-126.417969-8.046875-31.585937 0-63.5 1.519531-94.847656 4.523437-26.824219 2.574219-57.222656 6.941407-78.5 26.296876-8.796875 7.996093-15.734375 18.421874-20.613281 30.988281l-1.179688 3.035156 2.304688 2.300781c9.132812 9.128906 22.082031 14.367188 35.53125 14.367188zm0 0" fill="#ff8984"/><g fill="#fff"><path d="m438.445312 395.417969c-4.394531-1.246094-9.164062-1.878907-14.167968-1.878907-15.007813 0-30.296875 5.628907-42.582032 10.152344-12.410156 4.578125-26.78125 9.457032-40.285156 9.457032-5.804687 0-11.039062-.867188-16.003906-2.648438-6.945312-2.5-13.371094-6.917969-19.589844-11.191406-9.230468-6.335938-18.773437-12.890625-30.191406-13.3125-.367188-.015625-.734375-.019532-1.105469-.019532-11.148437 0-20.964843 5.847657-30.464843 11.503907-8.140626 4.851562-16.554688 9.867187-25.691407 11.089843-1.527343.203126-3.089843.308594-4.640625.308594-12.777344 0-24.863281-7.03125-36.601562-13.859375-11.296875-6.585937-22.976563-13.394531-35.929688-14.59375-1.351562-.128906-2.746094-.191406-4.148437-.191406-12.089844 0-23.839844 4.652344-33.738281 9.199219-1.980469.910156-3.957032 1.847656-5.910157 2.777344l-.128906.0625c-9.453125 4.460937-19.230469 9.074218-29.53125 10.886718-2.648437.464844-5.386719.699219-8.132813.699219-5.753906 0-14.089843-1.03125-21.105468-5.957031l-8.90625-6.253906 1.070312 10.832031c.371094 3.742187.761719 7.480469 1.152344 11.167969.257812 2.421874.515625 4.847656.765625 7.285156l.175781 1.738281 1.222656 1.246094c5.6875 5.816406 13.589844 8.761719 23.484376 8.761719 9.527343 0 18.398437-2.746094 22.832031-4.378907 3.636719-1.328125 7.285156-2.859375 10.804687-4.335937 10.375-4.339844 21.105469-8.824219 32.148438-8.824219.675781 0 1.355468.015625 2.042968.050781 11.933594.589844 22.941407 6.648438 33.59375 12.507813l.09375.050781c11.175782 6.140625 21.734376 11.9375 34.039063 12.8125 1.046875.074219 2.113281.113281 3.175781.113281 12.554688-.003906 23.941406-4.988281 36.078125-10.296875 11.277344-4.933594 22.9375-10.03125 35.011719-10.03125.316406 0 .636719.003906.957031.007813 12.359375.265625 23.976563 5.957031 35.257813 11.484375 11.332031 5.554687 22.035156 10.804687 34.203125 11.746094 1.253906.097656 2.539062.144531 3.824219.144531 14.148437 0 27.582031-5.75 40.59375-11.320313 2.347656-1.007812 4.6875-2.007812 7.011718-2.964844 12.269532-5.0625 23.109375-7.632812 32.214844-7.632812 4.6875 0 9.054688.679688 12.984375 2.015625l6.054687 2.054687.527344-6.371093c.515625-6.234375.90625-12.65625 1.160156-19.09375l.15625-3.929688zm0 0"/><path d="m76.109375 368.96875c13.128906 0 25.332031-3.675781 34.363281-10.347656 2.640625-1.941406 5.136719-4.097656 7.558594-6.183594 7.359375-6.316406 14.3125-12.28125 23.078125-12.28125h.109375c9.804688.058594 17.960938 8.15625 23.257812 14.257812.746094.851563 1.503907 1.738282 2.277344 2.644532 5.496094 6.441406 11.730469 13.738281 20.183594 16.871094 3.136719 1.164062 6.484375 1.753906 9.945312 1.753906 12.429688 0 24.605469-7.414063 34.875-14.667969 9.363282-6.609375 22.1875-15.660156 35.296876-15.660156 2.246093 0 4.453124.273437 6.554687.8125 8.542969 2.207031 14.917969 8.414062 21.679687 15 5.808594 5.652343 11.292969 10.988281 18.402344 14.238281 4.796875 2.195312 10.15625 3.308594 15.925782 3.308594 8.636718 0 18.132812-2.433594 28.214843-7.230469 5.164063-2.445313 10.195313-5.296875 15.0625-8.054687 7.804688-4.421876 15.875-8.996094 24.460938-11.894532 5.519531-1.859375 11.367187-2.84375 16.90625-2.84375 7.519531 0 13.976562 1.753906 19.183593 5.21875l8.488282 5.640625-.75-10.164062c-.179688-2.457031-.394532-5.023438-.65625-7.835938-.214844-2.390625-.472656-4.78125-.757813-7.109375l-.003906-1.726562-1.207031-1.242188c-7.683594-9.777344-21.699219-13.265625-32.3125-13.265625-4.898438 0-9.613282.707031-13.640625 2.046875-7.953125 2.652344-15.058594 6.539063-22.636719 10.683594-5.71875 3.136719-11.632812 6.378906-17.832031 8.882812-6.804688 2.753907-13.839844 4.210938-20.351563 4.210938-.445312 0-.898437-.011719-1.296875-.019531-7.730469-.230469-14.394531-2.65625-19.269531-7.007813-3.113281-2.785156-5.550781-6.378906-7.917969-9.875-2.785156-4.085937-5.660156-8.308594-9.691406-11.457031-4.777344-3.71875-10.96875-5.6875-17.910156-5.6875-5.867188 0-12.351563 1.417969-18.25 3.988281-6.957031 3.027344-13.003907 7.09375-19.402344 11.398438-3.816406 2.566406-7.757813 5.21875-11.851563 7.554687-5.960937 3.40625-15.003906 7.464844-24.230468 7.464844-3.28125 0-6.414063-.515625-9.316406-1.539063-7.691407-2.703124-13.503907-8.664062-19.667969-14.988281-6.710938-6.886719-13.652344-14.007812-23.175781-16.25-2.03125-.480469-4.15625-.722656-6.320313-.722656-7.6875 0-16.164063 3.050781-25.203125 9.074219-3 2-5.945312 4.1875-8.554688 6.125-5.71875 4.253906-11.632812 8.648437-18.179687 11.492187-5.496094 2.386719-11.484375 3.597657-17.796875 3.597657-11.527344 0-22.945312-4.167969-31.328125-11.4375l-5.824219-5.050782-2.226562 7.382813c-1.863282 6.1875-3.285156 12.839843-4.21875 19.773437l-.332032 2.445313 1.746094 1.75c10.585938 10.597656 27.238282 16.929687 44.542969 16.925781zm0 0"/><path d="m339.367188 243.265625c.554687.042969 1.109374.066406 1.664062.066406 11.699219 0 22.65625-9.3125 24.417969-20.753906 2.121093-13.722656-6.46875-22.003906-14.472657-24.929687-2.777343-1.015626-5.851562-1.550782-8.890624-1.550782-8.859376 0-16.566407 4.304688-21.15625 11.820313-5.585938 9.171875-3.746094 22.019531 4.203124 29.253906 3.867188 3.515625 8.921876 5.679687 14.234376 6.09375zm0 0"/><path d="m254.25 197.230469c-5.59375 9.175781-3.753906 22.027343 4.191406 29.265625 3.867188 3.523437 8.925782 5.683594 14.222656 6.085937.5625.046875 1.136719.066407 1.707032.066407 11.683594 0 22.621094-9.304688 24.386718-20.742188 2.121094-13.726562-6.464843-22.011719-14.460937-24.941406-2.78125-1.011719-5.855469-1.550782-8.894531-1.550782-8.867188 0-16.574219 4.308594-21.152344 11.816407zm0 0"/><path d="m211.15625 188.289062h-.316406c-9.980469.136719-21.878906 6.542969-24.425782 20.277344-1.980468 10.554688 4.304688 21.914063 14.316407 25.863282 2.738281 1.074218 5.640625 1.621093 8.628906 1.621093 2.320313 0 4.621094-.335937 6.832031-.988281 11.800782-3.472656 19.605469-16.570312 17.042969-28.605469-2.859375-13.410156-13.679687-18.167969-22.078125-18.167969zm0 0"/><path d="m141.398438 192.542969h-.304688c-9.976562.136719-21.878906 6.542969-24.4375 20.28125-1.96875 10.554687 4.320312 21.914062 14.320312 25.859375 2.734376 1.074218 5.640626 1.621094 8.632813 1.621094 2.320313 0 4.625-.335938 6.835937-.988282 11.792969-3.46875 19.59375-16.570312 17.03125-28.605468-2.859374-13.410157-13.679687-18.167969-22.078124-18.167969zm0 0"/></g><path d="m362.132812 175.667969c-10.957031-6.320313-23.769531-7.828125-37.035156-8.925781-23.324218-1.929688-47.058594-2.90625-70.539062-2.90625-39.34375 0-79 2.730468-117.867188 8.117187-15.59375 2.15625-33.144531 5.46875-44.070312 17.527344-8.230469 9.089843-12.035156 22.957031-10.4375 38.042969 1.4375 13.546874 6.777344 26.683593 11.492187 38.273437l1.621094 3.996094 4.1875-1.027344c12.351563-3.019531 24.898437-4.476563 36.621094-5.597656 31.359375-3.007813 63.28125-4.535157 94.871093-4.535157 42.179688 0 84.710938 2.710938 126.414063 8.058594 10.488281 1.34375 18.878906 2.855469 26.402344 4.761719l5.636719 1.429687.558593-5.789062c1.585938-16.457031 2.757813-32.542969-.265625-48.402344-3.707031-19.378906-13.765625-35.0625-27.589844-43.023437zm-216.527343 60.796875c-1.960938.574218-3.976563.867187-5.992188.867187-2.570312 0-5.179687-.492187-7.546875-1.417969-8.714844-3.4375-14.199218-13.339843-12.488281-22.550781 2.25-12.082031 12.726563-17.71875 21.515625-17.84375h.335938c9.726562 0 17.058593 6.058594 19.136718 15.816407 2.214844 10.382812-4.777344 22.128906-14.960937 25.128906zm69.757812-4.253906c-1.9375.570312-3.953125.859374-5.992187.859374-2.628906 0-5.175782-.476562-7.554688-1.410156-8.570312-3.378906-14.171875-13.492187-12.488281-22.546875 2.257813-12.097656 12.757813-17.734375 21.558594-17.847656h.324219c9.710937 0 17.03125 6.058594 19.105468 15.820313 2.214844 10.382812-4.777344 22.125-14.953125 25.125zm80.457031-20.761719c-1.550781 10.054687-11.179687 18.234375-21.464843 18.234375-.441407 0-.917969-.019532-1.457031-.066406-4.648438-.355469-9.070313-2.246094-12.453126-5.320313-6.925781-6.3125-8.535156-17.515625-3.664062-25.507813 5.515625-9.042968 14.011719-10.394531 18.582031-10.394531 2.722657 0 5.460938.472657 7.910157 1.367188 9.28125 3.394531 14.085937 11.703125 12.546874 21.6875zm66.695313 10.683593c-1.550781 10.046876-11.1875 18.222657-21.476563 18.222657-.515624 0-.980468-.015625-1.4375-.054688-4.664062-.363281-9.089843-2.257812-12.464843-5.335937-6.8125-6.199219-8.453125-17.640625-3.660157-25.507813 5.511719-9.039062 14.003907-10.390625 18.578126-10.390625 2.722656 0 5.457031.476563 7.902343 1.367188 9.285157 3.402344 14.097657 11.714844 12.558594 21.699218zm0 0" fill="#f9d889"/><path d="m340.125 91.875.78125.367188 8.804688.835937 1.046874-.375c6.96875-2.496094 12.582032-10.667969 14.328126-17.089844 2.148437-7.902343.960937-17.253906-3.347657-26.324219-3.117187-6.59375-7.410156-12.378906-11.585937-17.652343l-4.644532-5.867188-11.675781 21.046875c-3.636719 6.558594-8.160156 14.71875-7.9375 23.433594.226563 8.785156 6.210938 17.882812 14.230469 21.625zm0 0" fill="#f9d889"/><path d="m280.964844 1.621094-11.648438 21.023437c-3.640625 6.546875-8.171875 14.699219-7.957031 23.453125.269531 10.367188 8.574219 20.882813 18.132813 22.957032.796874.175781 1.621093.261718 2.449218.261718 8.976563 0 16.574219-10.371094 18.609375-17.855468 2.148438-7.898438.960938-17.25-3.34375-26.332032-3.15625-6.664062-7.632812-12.660156-11.59375-17.648437zm0 0" fill="#f9d889"/><path d="m215.570312 11.507812-11.652343 21.015626c-3.640625 6.558593-8.171875 14.71875-7.941407 23.453124.253907 10.371094 8.5625 20.890626 18.128907 22.964844.796875.175782 1.621093.261719 2.449219.261719 8.964843 0 16.566406-10.375 18.609374-17.871094 2.140626-7.890625.949219-17.238281-3.351562-26.316406-3.160156-6.664063-7.632812-12.660156-11.59375-17.648437zm0 0" fill="#f9d889"/><path d="m143.105469 20.945312-11.675781 21.058594c-3.628907 6.554688-8.144532 14.710938-7.917969 23.414063.265625 10.367187 8.570312 20.882812 18.125 22.957031.804687.175781 1.632812.265625 2.464843.265625 8.957032 0 16.554688-10.375 18.597657-17.867187 2.148437-7.882813.957031-17.230469-3.347657-26.320313-3.128906-6.617187-7.421874-12.394531-11.597656-17.652344zm0 0" fill="#f9d889"/><path d="m467.109375 477.433594c-3.523437-4.203125-10.546875-5.300782-15.816406-5.476563-19.730469-.671875-39.824219-1.449219-59.25-2.199219l-2.195313-.085937c-56.113281-2.191406-114.132812-4.457031-171.695312-4.457031-3.6875 0-7.382813.007812-11.0625.03125-24.277344.128906-48.867188.558594-73.085938 1.277344-37.65625 1.125-75.714844 2.976562-113.121094 5.511718-5.175781.355469-10.953124 1.074219-14.074218 5.175782-1.058594 1.410156-2.203125 3.832031-1.648438 7.371093.578125 3.667969 2.859375 7.292969 5.949219 9.453125 5.078125 3.554688 11.148437 4.25 18.5625 4.78125 75.523437 5.417969 152.40625 8.164063 228.507813 8.164063 6.050781 0 12.101562-.019531 18.144531-.050781 45.371093-.269532 91.472656-1.992188 136.0625-3.65625l9.195312-.34375c5.6875-.210938 11.371094-.421876 17.0625-.628907 5.933594-.210937 12.660157-.457031 18.566407-2.84375 6.542968-2.636719 11.117187-7.808593 11.941406-13.496093.5-3.453126-.1875-6.324219-2.042969-8.527344zm0 0" fill="#d8deec"/><path d="m470.960938 474.210938c-3.777344-4.515626-10.339844-6.964844-19.496094-7.273438-3.945313-.132812-7.90625-.273438-11.867188-.414062 7.816406-41.351563 9.824219-83.535157 5.929688-125.445313-1.460938-15.753906-4.070313-32.171875-13.164063-45.492187-8.980469-13.15625-22.511719-21.074219-37.558593-26.121094 1.65625-16.925782 3.15625-34.375-.15625-51.710938-3.972657-20.820312-14.914063-37.746094-30.011719-46.441406-2.054688-1.179688-4.15625-2.199219-6.296875-3.089844l15.972656-72.167968c.308594-1.402344.003906-2.867188-.839844-4.027344-1.390625-1.910156-4.128906-2.382813-6.96875-2.492188 4.628906-7.003906 7.070313-15.515625 6.589844-23.859375-1.003906-17.382812-13.433594-31.46875-22.507812-41.757812-1.078126-1.21875-2.679688-1.839844-4.300782-1.65625-1.617187.179687-3.046875 1.140625-3.828125 2.570312-2.425781 4.453125-5.441406 8.558594-8.632812 12.910157-1.625 2.214843-3.304688 4.503906-4.902344 6.84375-3.925781 5.753906-9.25 14.574218-10.15625 24.699218-.515625 5.800782.585937 11.402344 2.957031 16.113282-.066406-.007813-.132812-.015626-.199218-.019532-1.40625-.140625-2.789063.324219-3.832032 1.269532-1.042968.941406-1.640625 2.277343-1.652344 3.683593l-.398437 70.664063c-2.558594-.183594-5.121094-.34375-7.679687-.503906 0-.019532.003906-.042969.003906-.066407l-1.152344-78.488281c-.046875-3.226562-.132812-9.238281-4.675781-12.992188-.496094-.410156-1.03125-.75-1.589844-1.046874 5.042969-9.414063 5.871094-21.738282 1.972656-33.679688-3.917969-12-11.558593-22.148438-19.710937-32.34375-1.054688-1.320312-2.703125-2.011719-4.378906-1.8515625-1.679688.1601565-3.160157 1.1601565-3.945313 2.6523435-1.667969 3.195313-3.507813 6.261719-5.453125 9.507813-2.246094 3.753906-4.570312 7.632812-6.59375 11.699218-4.753906 9.546876-6.691406 18.074219-5.914062 26.066407.5625 5.75 2.683593 11.042969 5.898437 15.253906-2.417969.402344-3.175781 2.023437-3.421875 5.1875-.503906 6.550781.160156 13.410156.234375 19.976563.269531 22.828124.539063 45.660156.804687 68.488281-5.6875-.035157-11.378906-.035157-17.070312.042969l1.195312-81.777344c.019532-1.492188-.625-2.914063-1.757812-3.882813s-2.640625-1.378906-4.109375-1.125c-.347656.0625-.699219.125-1.050781.1875 3.832031-8.996093 4.402344-19.960937 1.269531-30.777343-3.945313-13.597657-12.558594-24.929688-20.324219-34.488282-1.160156-1.429687-3.019531-2.105468-4.824218-1.753906-1.808594.351562-3.273438 1.667969-3.820313 3.425781-1.8125 5.863281-5.023437 11.25-8.425781 16.953125-2.019532 3.390625-4.109375 6.894532-5.921875 10.566406-6.5625 13.292969-6.972657 26.171876-1.128907 35.335938 1.824219 2.863281 4.175782 5.210938 6.667969 7.230469-3.105469.464843-5.851562 1.5625-5.839843 5.117187 0 .125.222656 76.949219.222656 76.949219-4.363282.300781-8.726563.640625-13.089844 1.007813 0 0-2.972656-65.5625-2.972656-65.5625-.320313-7.058594-3.597656-14.402344-11.867188-14.300782-.808594.011719-1.601562.136719-2.386718.320313 3.242187-8.5 3.53125-18.683594.574218-28.898438-3.546875-12.257812-10.976562-23.015625-17.53125-32.503906-.933594-1.347656-2.464844-2.152344-4.101562-2.15625-.003906 0-.003906 0-.007813 0-1.636719 0-3.167969.800781-4.097656 2.144531-6.007813 8.640625-12.222656 17.578125-15.683594 28.132813-4.070312 12.398437-3.136719 24.796875 2.566407 34.019531.90625 1.46875 1.945312 2.847656 3.074218 4.140625-3.972656.5625-7.582031 1.859375-9.628906 5.226563-1.96875 3.242187-1.617188 6.886718-1.40625 9.0625l6.503906 67.238281c-13.292968 2.53125-26.734375 6.964843-36.164062 17.382812-9.195313 10.152344-13.464844 25.441407-11.710938 41.949219 1.457032 13.703125 6.441406 26.367188 11.414063 38.601562-12.492188 4.027344-24.328125 9.972657-34.375 19.109376-14.691407 13.363281-31.902344 39.902343-30.4375 90.449218.367187 12.738282 1.722656 25.554688 3.027343 37.953125 1.816407 17.179688 3.6875 34.910157 2.863282 52.257813-3.046875.199218-6.09375.390625-9.132813.597656-4.542969.308594-13 .878906-17.738281 7.148438-2.332031 3.089843-3.261719 7.0625-2.609375 11.191406.792969 5.039062 3.792969 9.816406 8.023437 12.78125 6.621094 4.636718 14.980469 5.238281 21.085938 5.675781 75.71875 5.429687 152.519531 8.171875 228.589844 8.171875 6.15625 0 12.304687-.019531 18.449218-.054688 45.550782-.265624 91.800782-1.992187 136.53125-3.664062 8.644532-.324219 17.292969-.644531 25.9375-.960938 6.351563-.226562 13.550782-.488281 20.273438-3.207031 8.199219-3.3125 13.957031-10 15.03125-17.445312.882812-6.121094-1.234375-10.152344-3.164062-12.457031zm-432.339844-37.460938c9.300781 4.535156 21.542968 4.894531 34.429687.726562 5.722657-1.851562 11.1875-4.316406 16.472657-6.699218 6.660156-3 12.953124-5.835938 19.617187-7.492188 10.984375-2.726562 22.863281-2 33.4375 2.046875 4.992187 1.90625 9.6875 4.507813 14.660156 7.261719 4.046875 2.238281 8.230469 4.554688 12.628907 6.492188 19.839843 8.742187 43.632812 8.984374 63.640624.640624 3.824219-1.597656 7.5625-3.492187 11.179688-5.328124 8.753906-4.4375 17.007812-8.636719 25.757812-8.410157 8.382813.214844 16.1875 4.476563 24.449219 8.988281 2.988281 1.628907 6.074219 3.316407 9.214844 4.8125 12.167969 5.796876 25.65625 8.746094 39.136719 8.742188 8.945312 0 17.886718-1.296875 26.433594-3.917969 5.914062-1.816406 11.589843-4.226562 17.078124-6.554687 5.460938-2.320313 10.621094-4.507813 16.007813-6.167969 8.527344-2.632813 20.730469-4.582031 30.4375 1.046875.492187.28125 1.007813.449219 1.535156.554688-1.78125 16.265624-3.945312 32.710937-5.257812 32.664062-13.246094-.488281-26.488281-1.003906-39.445313-1.507812-59.953125-2.332032-121.949218-4.734376-182.976562-4.421876-24.289063.128907-48.917969.5625-73.207032 1.285157-31.242187.925781-62.816406 2.371093-94.121093 4.289062.804687-.050781.078125-12.984375-1.109375-29.050781zm1.148437-109.171875c16.796875 11.8125 40.992188 12.765625 60.617188 1.925781 4.132812-2.28125 7.96875-4.984375 11.675781-7.59375 5.539062-3.902344 10.773438-7.589844 16.628906-9.722656 9.007813-3.285156 19.425782-2.535156 27.871094 2.007812 4.746094 2.550782 8.960938 6.234376 13.425781 10.136719 6.40625 5.597657 13.035157 11.390625 21.738281 14.070313 3.570313 1.101562 7.136719 1.578125 10.667969 1.578125 14.597657 0 28.5625-8.1875 39.324219-14.5 13.425781-7.871094 28.878906-15.175781 41.734375-9.679688 5.992187 2.5625 10.742187 7.664063 15.773437 13.0625 5.46875 5.871094 11.121094 11.945313 18.960938 15.363281 4.328125 1.886719 8.980469 2.835938 13.988281 2.835938 9.800781 0 20.972657-3.628906 33.769531-10.933594 1.457032-.832031 2.921876-1.683594 4.394532-2.539062 11.261718-6.546875 22.925781-13.328125 35.011718-12.832032 9.699219.390626 18.945313 5.433594 27.488282 10.828126.5.316406 1.035156.511718 1.578125.632812.167969 1.699219.3125 3.402344.460937 5.117188.347656 4.128906.707032 8.257812 1.054688 12.394531-11.234375-5.644531-26.015625-6.0625-41.152344-.875-8.898438 3.042969-17.136719 7.496093-25.105469 11.796875-5.277343 2.851562-10.734375 5.796875-16.207031 8.222656-10.894531 4.828125-26.652344 9.289062-39.886719 3.125-6.167969-2.871094-11.429687-7.847656-17.003906-13.113281-8.046875-7.605469-16.371094-15.472657-28.089844-17.1875-16.097656-2.355469-30.121093 8.335937-40.363281 16.144531-10.652344 8.117188-22 15.300781-32.84375 12.953125-8.078125-1.753906-14.417969-8.402344-21.132812-15.441406-7.929688-8.3125-16.132813-16.910157-28.226563-18.414063-13.714844-1.699218-24.503906 6.460938-34.929687 14.359375-3.761719 2.847657-7.316407 5.542969-10.96875 7.757813-19.855469 12.042968-48.328126 8.671875-64.820313-7.683594-.121094-.121094-.261719-.214844-.394531-.324219.933594-7.960937 2.519531-15.890625 4.960937-23.472656zm65.433594 40.019531c4.089844-2.484375 8.019531-5.457031 11.816406-8.335937 9.246094-7 17.972657-13.621094 27.671875-12.410157 8.558594 1.0625 15.203125 8.027344 22.234375 15.398438 7.457031 7.816406 15.167969 15.902344 26.238281 18.304688 14.800782 3.210937 28.460938-5.203126 41.015626-14.769532 11.027343-8.40625 21.839843-15.824218 32.859374-14.207031 8.605469 1.257813 15.441407 7.722656 22.683594 14.566406 5.902344 5.578125 12.011719 11.351563 19.644532 14.90625 6.0625 2.824219 12.402343 3.9375 18.632812 3.9375 10.859375 0 21.386719-3.382812 29.511719-6.984375 5.828125-2.582031 11.460937-5.625 16.90625-8.566406 7.960937-4.296875 15.480469-8.355469 23.597656-11.136719 15.175781-5.195312 29.546875-3.839843 38.453125 3.625.136719.113281.289062.195313.429688.292969.617187 8.777344 1.050781 17.5625 1.089843 26.351562-18.085937-2.855468-35.972656 3.417969-53.324219 9.507813-18.910156 6.632813-36.773437 12.898437-53.949218 7.652344-7.324219-2.238281-13.980469-6.480469-21.027344-10.96875-8.914062-5.675781-18.128906-11.546875-29.140625-13.34375-16.269531-2.652344-32.007813 4.417969-45.898437 10.652343l-1.21875.546876c-12.859376 5.765624-27.691407 11.566406-41.027344 7.347656-5.90625-1.867188-11.144532-5.601563-16.699219-9.554688-3.429687-2.445312-6.980469-4.972656-10.804687-7.117187-12.53125-7.035157-27.808594-9.523438-41.921876-6.832031-10.890624 2.078124-20.707031 6.964843-30.199218 11.695312-5.597656 2.785156-11.386719 5.671875-17.183594 7.839844-13.980469 5.230468-31.894531 5.59375-40.683594-5.25-.625-7.59375-1.066406-13.15625-1.113281-14.8125-.117187-4.101563-.097656-8.292969.066406-12.519532 20.128907 15.363282 49.511719 17.425782 71.339844 4.183594zm-53.714844 41.65625c8.671875.894532 18.476563-.492187 27.605469-3.910156 6.285156-2.347656 12.3125-5.351562 18.140625-8.253906 9.296875-4.628906 18.078125-9.003906 27.617187-10.824219 11.839844-2.257813 24.65625-.167969 35.164063 5.730469 3.355469 1.882812 6.535156 4.148437 9.902344 6.546875 5.9375 4.226562 12.074219 8.597656 19.480469 10.9375 15.886718 5.027343 32.515624-.757813 48.121093-7.753907l1.222657-.550781c13.222656-5.933593 26.898437-12.078125 40.199218-9.902343 8.988282 1.460937 16.953125 6.539062 25.386719 11.910156 7.300781 4.648437 14.847656 9.457031 23.476563 12.09375 5.484374 1.675781 10.96875 2.378906 16.4375 2.378906 14.769531 0 29.429687-5.144531 43.730468-10.160156 17.382813-6.097656 33.855469-11.875 49.878906-8.820313-.039062 1.238281-.089843 2.472657-.152343 3.710938-.105469 2.089843-.84375 10.550781-1.863281 20.65625-12.285157-5.898438-26.21875-3.710938-36.011719-.695313-5.875 1.8125-11.511719 4.207032-16.964844 6.523438-5.496094 2.332031-10.6875 4.535156-16.105469 6.199218-19.070312 5.851563-40.339844 4.285157-58.351562-4.292968-2.890625-1.375-5.71875-2.925782-8.71875-4.5625-8.941406-4.882813-18.183594-9.929688-28.980469-10.207032-11.246094-.277343-21.058594 4.683594-30.53125 9.488282-3.613281 1.832031-7.023437 3.5625-10.503906 5.015625-17.539063 7.3125-38.390625 7.101562-55.773438-.558594-3.988281-1.757813-7.789062-3.863281-11.820312-6.09375-5.054688-2.796875-10.28125-5.691406-15.929688-7.851563-12.460937-4.769531-26.457031-5.625-39.410156-2.410156-7.539063 1.871094-14.539063 5.027344-21.3125 8.082032-5.269531 2.375-10.246094 4.617187-15.441406 6.296874-19.558594 6.328126-29.417969-1.171874-31.96875-3.621093-.113281-.105469-.242188-.1875-.359375-.28125-.523438-6.605469-1.074219-13.304688-1.59375-19.535157 4.433594 2.511719 9.625 4.113282 15.429687 4.714844zm297.292969-244.167968c-7.429688-1.863282-15.207031-2.675782-23.132812-3.332032l.375-65.890625 37.289062 3.554688zm-13.042969-78.441407c-5.570312-3.347656-7.542969-10.6875-7.027343-16.472656.695312-7.800781 5.160156-15.128906 8.457031-19.960937 1.5-2.199219 3.128906-4.417969 4.703125-6.5625 1.902344-2.59375 3.839844-5.234376 5.675781-7.992188 8.441406 9.996094 14.941406 19.574219 15.578125 30.59375.476562 8.292969-2.921875 16.816406-8.917969 22.570312-4.902343-.382812-9.824219-.488281-14.734375-.910156-.863281-.074218-1.726562-.171875-2.582031-.277344-.328125-.375-.699219-.71875-1.152344-.988281zm-43.976562-10.742187c1.238281.074218 3.3125.195312 3.996093.761718.976563.804688 1.027344 4.160157 1.046876 5.421876l1.140624 77.839843c-9.289062-.46875-18.585937-.785156-27.886718-.953125l-.992188-84.414062zm-20.386719-47.570313c1.851562-3.71875 3.976562-7.265625 6.222656-11.015625.664063-1.109375 1.335938-2.230468 2.003906-3.363281 5.847657 7.640625 10.710938 15.035156 13.429688 23.359375 2.777344 8.519531 3.304688 20.453125-3.257812 28.921875-1.371094-.007813-2.703126-.011719-3.941407-.097656-2.382812-.167969-4.769531-.289063-7.15625-.402344-.542969-.8125-1.328125-1.476563-2.308593-1.863281-5.257813-2.074219-9.238282-8.058594-9.902344-14.890625-.59375-6.070313 1.015625-12.824219 4.910156-20.648438zm-37.3125 54.683594-1.109375 76.082031c-9.277344.230469-18.550781.609375-27.816406 1.140625l-.210938-72.140625zm-29.90625-42.371094c1.636719-3.316406 3.535156-6.503906 5.542969-9.875 2.074219-3.472656 4.183593-7.015625 6.015625-10.753906 5.457031 7.234375 10.621094 15.351563 13.210937 24.289063 3.277344 11.300781 1.433594 23.035156-4.648437 30.332031-3.125.582031-6.246094 1.183593-9.359375 1.816406-.195313-.167969-.394531-.335937-.621094-.476563-4.304687-2.660156-9.183594-5.671874-11.808594-9.785156-5.570312-8.730468-.691406-20.777344 1.667969-25.546875zm-70.714844 11.507813c2.273438-6.917969 6.125-13.359375 10.289063-19.566406 4.992187 7.449218 9.621093 15.195312 12.058593 23.617187 2.46875 8.515625 2.722657 20.488281-3.800781 28.8125-2.695312.328125-5.390625.652344-8.082031 1.027344-.273438-.242188-.574219-.464844-.910156-.652344-3.261719-1.789063-6.023438-4.414063-7.980469-7.582031-4.148437-6.710938-4.722656-16.0625-1.574219-25.65625zm-4.914062 45.476562c.105468-.140625.699218-.628906 3.875-1.042968l23.519531-3.058594c.136719-.011719.265625-.03125.402344-.050782l8.589843-1.121093c1.84375-.238281 2.9375-.261719 3.25-.066407.074219.042969.714844.554688.894532 4.464844l2.992187 66.003906c-12.046875 1.15625-24.066406 2.558594-36.046875 4.21875-.34375.046876-.6875.09375-1.03125.144532l-6.445312-66.59375c-.0625-.671875-.238282-2.453125 0-2.898438zm-41.378906 129.371094c-1.453126-13.671875 1.890624-26.128906 9.171874-34.167969 9.792969-10.8125 26.328126-13.898437 41.058594-15.9375 61.953125-8.585937 124.976563-10.324219 187.308594-5.175781 12.667969 1.046875 24.875 2.46875 34.953125 8.269531 12.574219 7.238281 21.75 21.6875 25.175781 39.640625 2.925782 15.335938 1.710938 31.355469.207032 46.980469-8.910157-2.25-18.097657-3.730469-27.003907-4.871094-73.652343-9.4375-148.472656-10.628906-222.386719-3.542969-12.082031 1.160157-24.882812 2.679688-37.335937 5.730469-4.84375-11.917969-9.800781-24.230469-11.148437-36.925781zm-26.179688 66.179688c20.152344-18.328126 49.601562-22.523438 75.621094-25.015626 73.171875-7.015624 147.242187-5.832031 220.15625 3.507813 25.558594 3.273437 53.550781 9.34375 67.347656 29.554687 3.769531 5.527344 6.339844 11.816407 8.0625 18.289063-8.070312-4.609375-16.792969-8.347656-26.402344-8.734375-14.992187-.597656-27.933594 6.910156-40.433594 14.179688-1.445312.839843-2.886718 1.679687-4.324218 2.496093-16.40625 9.363281-29.101563 11.855469-38.816406 7.617188-5.9375-2.589844-10.652344-7.652344-15.648438-13.015625-5.511719-5.921875-11.214844-12.042969-19.152344-15.4375-16.9375-7.246094-35.136718 1.113281-50.707031 10.246094-14.691406 8.617187-28.957031 16.015624-42.003906 11.992187-6.675781-2.054687-12.230469-6.910156-18.109375-12.046875-4.6875-4.09375-9.527344-8.324219-15.269532-11.410156-10.910156-5.871094-24.375-6.839844-36.019531-2.597656-7.097656 2.589843-13.125 6.835937-18.957031 10.941406-3.648438 2.570312-7.097656 5-10.753906 7.019531-16.882813 9.324219-38.539063 8.054687-52.089844-2.890625 4.140625-9.265625 9.832031-17.722656 17.5-24.695312zm403.246094 192.058593c-.558594 3.871094-4.039063 7.636719-8.871094 9.589844-5.09375 2.058594-11.085938 2.277344-16.886719 2.484375-8.648437.316406-17.296875.636719-25.949219.960938-44.648437 1.667968-90.820312 3.394531-136.214843 3.65625-81.820313.476562-164.679688-2.242188-246.261719-8.09375-6.632812-.472657-12.027344-1.0625-16.058594-3.886719-1.988281-1.394531-3.507812-3.804688-3.878906-6.140625-.230469-1.457032.011719-2.667969.710938-3.59375 1.828124-2.421875 6.335937-2.917969 10.421874-3.195313 37.421876-2.535156 75.414063-4.386719 112.921876-5.5 24.207031-.71875 48.757812-1.148437 72.964843-1.277343 60.789063-.320313 122.6875 2.085937 182.535157 4.414062 20.152343.78125 40.988281 1.59375 61.476562 2.289062 5.933594.199219 10.363281 1.546876 12.160156 3.691407.582032.699219 1.3125 1.933593.929688 4.601562zm0 0"/><path d="m125.003906 242.410156c3.667969 2.722656 8.433594 4.171875 13.609375 4.171875.761719 0 1.53125-.03125 2.308594-.09375 10.214844-.835937 19.492187-6.875 24.210937-15.769531 4.847657-9.128906 4.371094-20.515625-1.210937-29.019531-5.820313-8.871094-15.957031-13.527344-26.457031-12.148438-10.347656 1.359375-18.8125 8.359375-22.09375 18.269531-2.746094 8.292969-1.75 17.84375 2.734375 26.203126 1.957031 3.652343 4.214843 6.394531 6.898437 8.386718zm-.152344-31.453125c2.097657-6.335937 7.300782-10.640625 13.914063-11.507812.804687-.105469 1.605469-.15625 2.398437-.15625 5.832032 0 11.101563 2.839843 14.410157 7.886719 3.558593 5.414062 3.851562 12.992187.738281 18.859374-3.09375 5.824219-9.453125 9.949219-16.203125 10.5-3.636719.292969-6.894531-.464843-9.152344-2.144531-1.480469-1.097656-2.804687-2.761719-4.050781-5.089843-3.148438-5.867188-3.917969-12.726563-2.054688-18.347657zm0 0"/><path d="m193.679688 236.871094c3.667968 2.722656 8.433593 4.171875 13.609374 4.171875.761719 0 1.53125-.03125 2.308594-.09375 10.214844-.835938 19.492188-6.875 24.210938-15.769531 4.847656-9.128907 4.371094-20.515626-1.210938-29.019532-5.820312-8.871094-15.964844-13.53125-26.457031-12.148437-10.34375 1.355469-18.8125 8.355469-22.089844 18.265625h-.003906c-2.746094 8.292968-1.746094 17.847656 2.738281 26.207031 1.953125 3.652344 4.210938 6.394531 6.894532 8.386719zm-.15625-31.453125c2.101562-6.335938 7.304687-10.640625 13.917968-11.507813 6.761719-.886718 13.050782 2.003906 16.8125 7.730469 3.554688 5.414063 3.851563 12.992187.738282 18.859375-3.09375 5.828125-9.457032 9.949219-16.203126 10.5-3.636718.296875-6.894531-.464844-9.15625-2.144531-1.476562-1.097657-2.804687-2.761719-4.050781-5.089844-3.148437-5.867187-3.917969-12.726563-2.058593-18.347656zm0 0"/><path d="m258.296875 234.289062c3.664063 2.722657 8.429687 4.171876 13.605469 4.171876.761718 0 1.535156-.035157 2.3125-.097657 10.210937-.832031 19.488281-6.875 24.210937-15.769531 4.84375-9.125 4.371094-20.515625-1.210937-29.015625-5.824219-8.875-15.957032-13.53125-26.457032-12.152344-10.347656 1.359375-18.8125 8.359375-22.09375 18.269531-2.746093 8.292969-1.75 17.84375 2.734376 26.203126 1.957031 3.652343 4.210937 6.394531 6.898437 8.390624zm-.15625-31.453124c2.097656-6.339844 7.300781-10.640626 13.914063-11.507813.808593-.109375 1.609374-.160156 2.398437-.160156 5.832031 0 11.101563 2.84375 14.414063 7.886719 3.554687 5.417968 3.851562 12.996093.738281 18.859374-3.09375 5.828126-9.453125 9.949219-16.203125 10.5-3.644532.296876-6.894532-.464843-9.15625-2.140624-1.480469-1.101563-2.804688-2.765626-4.050782-5.089844-3.148437-5.871094-3.914062-12.730469-2.054687-18.347656zm0 0"/><path d="m325.863281 245.363281c3.667969 2.722657 8.433594 4.171875 13.609375 4.171875.761719 0 1.535156-.03125 2.308594-.09375 10.214844-.835937 19.492188-6.875 24.210938-15.769531 4.847656-9.128906 4.371093-20.519531-1.210938-29.019531-5.820312-8.871094-15.960938-13.53125-26.457031-12.148438-10.34375 1.355469-18.808594 8.355469-22.09375 18.265625v.003907c-2.746094 8.292968-1.746094 17.84375 2.738281 26.203124 1.957031 3.652344 4.210938 6.394532 6.894531 8.386719zm-.15625-31.453125c2.101563-6.335937 7.304688-10.640625 13.917969-11.507812 6.765625-.886719 13.050781 2.003906 16.8125 7.730468 3.554688 5.414063 3.851562 12.992188.738281 18.859376-3.09375 5.828124-9.453125 9.949218-16.203125 10.496093-3.640625.300781-6.894531-.460937-9.15625-2.140625-1.476562-1.097656-2.804687-2.761718-4.050781-5.089844-3.148437-5.867187-3.917969-12.726562-2.054687-18.347656zm0 0"/></svg>