<svg height="511pt" viewBox="-26 0 511 511.99951" width="511pt" xmlns="http://www.w3.org/2000/svg"><path d="m441.160156 132.421875c-8.277344-7.703125-19.472656-11.449219-34.226562-11.449219-11.320313 0-23.347656 2.238282-32.5625 4.191406 19.394531-19.875 23.144531-54.152343 8.714844-79.734374-13.648438-24.160157-41.730469-40.023438-71.449219-40.417969-.378907-.011719-.761719-.011719-1.144531-.011719-28.632813 0-52.042969 15.246094-71.75 29.542969-.800782.578125-1.628907 1.175781-2.621094 1.324219-.195313.027343-.386719.042968-.566406.042968-2.109376 0-3.78125-2.226562-5.273438-4.636718-5.140625-8.285157-13.824219-15.199219-24.449219-19.472657-8.492187-3.417969-18.359375-5.386719-31.050781-6.191406-3.429688-.21875-6.828125-.332031-10.097656-.332031-24.546875 0-44.542969 6.1875-59.4375 18.382812-14.1875 11.621094-24.394532 28.515625-28.746094 47.574219-4.367188 19.058594-2.519531 38.710937 5.195312 55.339844-2.15625-.21875-4.363281-.328125-6.554687-.328125-25.191406 0-50.007813 14.75-61.75 36.707031-12.929687 24.191406-9.769531 55.855469 7.683594 77.007813 12.976562 15.730468 33.308593 25.125 54.386719 25.121093 6.800781 0 13.441406-.988281 19.746093-2.941406 13.1875 22.570313 38.597657 37.484375 64.722657 37.996094.480468.011719.957031.011719 1.421874.011719 25.605469 0 51.03125-13.90625 64.78125-35.429688 18.769532 18.308594 44.847657 28.808594 71.542969 28.808594 5.839844 0 11.671875-.515625 17.328125-1.527344 12.886719-2.308594 24.058594-7.53125 32.300782-15.101562 7.402343-6.800782 12.027343-15.078126 13.015624-23.308594 6.113282 5.652344 14.238282 8.636718 23.492188 8.636718 9.332031 0 19.183594-3.078124 27.035156-8.453124 15.339844-10.5 24.699219-27.875 31.835938-43.492188 5.597656-12.285156 10.898437-25.601562 11.777344-39.761719.953124-15.226562-4.019532-29.472656-13.300782-38.097656zm0 0" fill="#fff"/><path d="m315 292c-5.628906 1.003906-11.4375 1.515625-17.261719 1.515625 0 0 0 0-.003906 0-24.574219 0-49.175781-9.113281-67.496094-25.011719l-4.046875-3.511718-3.222656 4.28125c-14.355469 19.046874-37.96875 30.878906-61.628906 30.878906-.027344 0-.058594 0-.085938 0-.441406 0-.878906 0-1.316406-.011719-24.964844-.488281-49.039062-13.863281-62.824219-34.910156l-1.9375-2.960938-3.4375.84375c-4.097656 1.007813-8.316406 1.628907-12.550781 1.84375l-5.234375.265625 13.492187 137.085938 2.316407 1.269531c38.753906 21.183594 82.566406 32.769531 126.707031 33.5 1.515625.027344 3.03125.039063 4.550781.039063 42.367188 0 84.8125-10.0625 122.734375-29.097657l2.617188-1.3125 6.144531-133.425781-8.496094 6.410156c-7.980469 6.019532-18.289062 10.390625-29.019531 12.308594zm0 0" fill="#d8deec"/><path d="m222.753906 463.671875c-2.464844 0-4.742187-.035156-6.980468-.097656-41.324219-1.171875-82.003907-12.890625-117.644532-33.882813l-8.484375-4.996094.972657 9.796876c1.746093 17.667968 4.050781 33.210937 14.582031 44.480468 9.28125 9.929688 22.980469 13.851563 35.085937 16.75 31.210938 7.484375 63.585938 11.277344 96.222656 11.277344 22.914063 0 45.804688-1.894531 68.046876-5.628906 12.5-2.109375 26.226562-5.667969 33.292968-16.105469 4.863282-7.203125 5.621094-15.800781 6.109375-26.296875l1.28125-27.847656-7.730469 4.085937c-35.238281 18.621094-74.917968 28.464844-114.753906 28.464844zm0 0" fill="#d8deec"/><path d="m220.941406 434.121094c-1.476562 0-2.933594-.011719-4.425781-.039063-42.015625-.695312-83.925781-11.394531-121.203125-30.941406l-8.203125-4.300781 2.890625 29.414062 2.105469 1.300782c37.1875 22.972656 79.921875 35.769531 123.582031 37.011718 2.367188.070313 4.765625.105469 7.128906.105469 41.757813 0 83.191406-10.660156 119.816406-30.820313l2.453126-1.351562 1.4375-31.121094-7.558594 3.660156c-36.609375 17.71875-77.417969 27.082032-118.023438 27.082032zm0 0" fill="#f0f2fa"/><path d="m444.570312 128.757812c-15.128906-14.085937-36.308593-14.449218-58.175781-10.953124 5.488281-8.878907 8.988281-19.289063 10.101563-30.335938 1.570312-15.558594-1.648438-31.359375-9.058594-44.492188-14.5-25.683593-44.261719-42.550781-75.824219-42.9687495-30.578125-.3750005-55.175781 15.5195315-75.792969 30.4765625-.007812.003906-.015624.011719-.027343.019531-.332031-.417968-.753907-1.039062-1.261719-1.855468-7.292969-11.773438-18.617188-18.183594-26.835938-21.488282-8.988281-3.617187-19.347656-5.695312-32.59375-6.542968-30.542968-1.957032-55.109374 4.496093-73.03125 19.175781-29.097656 23.828125-40.367187 66.203125-27.933593 101.464843-26.574219.410157-52.566407 15.800782-65.152344 39.339844-13.859375 25.925782-10.476563 59.867188 8.226563 82.542969 12.820312 15.542969 32.195312 25.023437 52.164062 26.664063l16.226562 164.796874c1.425782 14.488282 3.378907 34.335938 15.949219 47.785157 9.726563 10.410156 23.804688 14.898437 37.570313 18.199219 31.683594 7.59375 64.566406 11.414062 97.398437 11.414062 23.125 0 46.226563-1.894531 68.859375-5.699219 13.542969-2.277343 28.484375-6.226562 36.605469-18.230469 6.050781-8.945312 6.558594-19.992187 6.96875-28.867187l8.511719-184.644531c.015625-.382813-.019532-.75-.082032-1.113282 2.675782-3.5625 4.71875-7.378906 6.097657-11.382812 15.695312 8.945312 36.589843 5.15625 50.195312-4.164062 16.375-11.214844 26.148438-29.316407 33.550781-45.539063 5.800782-12.71875 11.296876-26.554687 12.226563-41.527344 1.058594-16.953125-4.367187-32.289062-14.882813-42.074219zm-365.132812 141.195313c4.542969-.238281 9.066406-.886719 13.492188-1.984375 14.527343 22.183594 40.371093 36.648438 66.917968 37.171875.5.011719.992188.015625 1.492188.015625 25.351562 0 50.382812-12.652344 65.621094-32.875 24.027343 20.847656 57.558593 30.253906 88.921874 24.640625 11.535157-2.066406 22.5625-6.761719 31.148438-13.242187-1.207031 26.160156-2.292969 52.324218-3.457031 78.488281-.503907 11.40625-1.027344 22.8125-1.578125 34.214843-13.878906 11.28125-33.730469 21.15625-53.234375 26.460938-58.417969 15.878906-122.691407 8.914062-176.347657-19.09375-6.496093-3.390625-13.175781-7.277344-18.027343-12.683594-.742188-.824218-1.699219-1.332031-2.707031-1.539062-3.992188-39.761719-8.316407-79.726563-12.242188-119.574219zm261.109375 163.046875c-.484375.183594-.949219.421875-1.375.761719-9.082031 7.347656-20.300781 11.886719-29.058594 15.023437-51.441406 18.40625-109.257812 19.25-162.789062 2.375-20.511719-6.464844-36.445313-12.9375-51.921875-24.835937-.761719-7.625-1.550782-15.257813-2.316406-22.878907 4.617187 3.65625 9.714843 6.566407 14.699218 9.167969 36.171875 18.882813 76.980469 28.578125 117.765625 28.578125 22.199219 0 44.394531-2.871094 65.832031-8.699218 17.859376-4.855469 36.039063-13.355469 50.265626-23.335938-.140626 7.933594-.585938 15.890625-1.101563 23.84375zm-6.84375 49.464844c-6.007813 8.882812-18.527344 12.046875-29.980469 13.972656-53.449218 8.984375-109.5625 7.058594-162.269531-5.574219-11.410156-2.734375-24.277344-6.398437-32.597656-15.304687-8.578125-9.179688-10.867188-21.792969-11.957031-33.757813-.070313-.761719-.144532-1.523437-.214844-2.285156 14.425781 9.558594 29.75 15.542969 47.636718 21.183594 26.519532 8.355469 54.050782 12.527343 81.40625 12.527343 30 0 59.78125-5.015624 87.753907-15.027343 7.777343-2.78125 17.375-6.617188 26.226562-12.460938-.28125 4.339844-.542969 8.675781-.742187 13.003907-.449219 9.695312-1.117188 17.597656-5.261719 23.722656zm115.769531-312.25c-.828125 13.347656-5.941406 26.148437-11.34375 37.992187-6.832031 14.976563-15.75 31.609375-30.105468 41.441407-12.417969 8.503906-32.167969 11.488281-44.308594.269531-1.378906-1.273438-3.359375-1.667969-5.121094-1.019531-1.761719.648437-3.011719 2.226562-3.238281 4.09375-1.585938 13.144531-15.167969 29.417968-41.234375 34.082031-30.183594 5.398437-62.554688-4.539063-84.503906-25.9375-1.074219-1.046875-2.566407-1.554688-4.066407-1.386719-1.492187.175781-2.828125 1.011719-3.640625 2.277344-12.914062 20.226562-36.570312 33.125-60.558594 33.125-.4375 0-.871093-.003906-1.308593-.011719-24.433594-.480469-48.1875-14.425781-60.523438-35.519531-.914062-1.566406-2.574219-2.476563-4.316406-2.476563-.488281 0-.984375.070313-1.476563.222657-24.308593 7.507812-52.609374-.957032-68.800781-20.589844-16.195312-19.632813-19.125-49.019532-7.125-71.464844 12-22.441406 38.074219-36.328125 63.386719-33.765625 1.792969.179687 3.535156-.613281 4.578125-2.074219 1.039063-1.464844 1.214844-3.375.460937-5.007812-7.253906-15.613282-8.976562-34.125-4.863281-52.117188 4.117188-17.996094 13.722657-33.914062 27.039063-44.820312 15.902344-13.023438 38.128906-18.71875 66.054687-16.933594 12.152344.777344 21.527344 2.632812 29.503907 5.839844 9.652343 3.886718 17.488281 10.09375 22.066406 17.480468 1.445312 2.335938 4.839844 7.804688 10.835937 6.894532 2.207031-.332032 3.78125-1.476563 4.824219-2.230469 19.09375-13.84375 41.691406-28.578125 68.800781-28.578125.328125 0 .660157.003906.992188.007812 28.070312.371094 54.464843 15.242188 67.246093 37.886719 13.386719 23.714844 9.972657 55.429688-7.9375 73.773438-1.539062 1.578125-1.867187 3.972656-.804687 5.90625 1.0625 1.929687 3.261719 2.933593 5.417969 2.480469 23.644531-5.007813 47.5625-7.746094 62.355468 6.023437 8.191407 7.625 12.570313 20.386719 11.714844 34.136719zm0 0"/></svg>