<svg height="512pt" viewBox="-68 0 512 512.00218" width="512pt" xmlns="http://www.w3.org/2000/svg"><path d="m170.964844 500.5625c-2.855469-16.425781-1.914063-33.535156 2.726562-49.476562 1.246094-4.277344 2.941406-9.179688 6.082032-13.125 3.160156-3.980469 7.542968-6.375 11.675781-6.410157h.132812c5.367188 0 10.75 3.835938 13.714844 9.773438 2.761719 5.519531 3.351563 12.105469 3.722656 18.378906.796875 13.5625.898438 27.382813.308594 41.078125l-.230469 5.265625 53.3125-.46875c7.285156-.070313 15.441406-.609375 20.011719-6.128906 3.949219-4.765625 3.828125-11.429688 3.367187-17.84375-3.40625-48.191407-11.816406-96.164063-24.984374-142.589844l-.136719-2.375-1.929688-1.394531c-19.246093-13.910156-38.179687-27.828125-56.273437-41.371094-4.078125-3.050781-11.671875-8.722656-11.425782-16.363281.148438-4.808594 3.421876-8.921875 6.0625-12.234375l26.269532-32.96875 3.757812-3.847656-16.765625-13.328126-2.941406 1.691407c-5.058594 2.910156-10.941406 4.445312-17.019531 4.445312-3.335938 0-6.632813-.460937-9.792969-1.375l-3.40625-.980469-2.054687 2.886719c-6.171876 8.667969-12.230469 17.070313-18.003907 24.972657-5.578125 7.644531-11.398437 15.535156-17.308593 23.445312l-1.085938 1.449219.101562 1.8125c0 .019531 0 .042969.007813.042969 0 0 .003906-.007813.011719-.027344-21.78125 73.421875-35.324219 152.332031-39.160156 228.199218l-.269532 5.300782 72.539063-.628906zm19.640625-144.28125c2.265625-1.226562 4.347656-1.847656 6.1875-1.847656 1.179687 0 2.261719.261718 3.214843.773437 4.792969 2.566407 6.035157 10.554688 6.34375 13.863281l1.882813 20.246094c.15625 1.636719.316406 3.332032-.199219 4.789063-.730468 2.074219-4.398437 4.542969-17.734375 4.542969-2.695312 0-5.441406-.097657-7.777343-.195313l-.566407-.023437c-.800781-.03125-1.503906-.0625-2.054687-.070313-.75-.019531-1.605469-.039063-2.105469-.371094-.902344-.605469-1.007813-2.4375-1.054687-3.234375-.105469-1.816406-.160157-3.710937-.160157-5.632812 0-16.753906 4.71875-27.800782 14.023438-32.839844zm0 0" fill="#af7979"/><g fill="#f9d889"><path d="m362.222656 48.558594c-5.507812-3.671875-11.722656-7.652344-17.726562-11.5l-.566406-.363282c-5.265626-3.359374-10.835938-6.925781-15.886719-10.257812l-4.515625-2.976562-2.613282 4.730468c-1.320312 2.390625-3.074218 4.574219-4.484374 6.328125l-89.117188 110.96875-3.410156 4.269531 4.433594 2.957032 32.875 26.457031c4.046874 3.246094 7.757812 5.949219 12.195312 6.117187.144531.003907.289062.007813.429688.007813h.003906c3.621094 0 7.113281-1.691406 10.679687-5.164063l1.308594-1.277343.226563.246093 1.191406-1.636718 1.488281-1.453125-.277344-.203125 1.207031-1.660156.164063-.210938c2.792969-3.695312 5.578125-7.402344 8.363281-11.117188l1.398438-1.871093.007812.007812 2.808594-3.753906c7.726562-10.34375 15.398438-20.707031 22.804688-30.792969l1.515624-2.066406.007813.003906 1.761719-2.417968 9.378906-12.859376-.007812-.003906 1.128906-1.558594c6.65625-9.175781 13.628906-18.886718 21.316406-29.6875l.570312-.800781.011719.011719 3.515625-4.960938c.226563-.320312.457032-.644531.675782-.96875 3.417968-4.816406 6.324218-9.949218 4.574218-14.871093-1.171875-3.285157-4.058594-5.414063-7.4375-7.671875zm0 0"/><path d="m341.992188 319.804688-15.648438-12.449219-.003906.003906-53.1875-42.300781-46.738282-37.164063-3.023437 4.386719-26.285156 32.996094c-3.238281 4.054687-5.933594 7.773437-6.070313 12.25-.117187 3.761718 1.589844 7.382812 5.210938 11.066406l1.273437 1.292969-.160156.152343 1.167969.875 1.921875 1.957032.234375-.335938 1.480468 1.117188c.125.09375.25.1875.375.277344 3.683594 2.753906 7.382813 5.511718 11.082032 8.253906l1.875 1.390625-.003906.007812 3.765624 2.785157c10.636719 7.875 21.035157 15.5 30.90625 22.660156l4.496094 3.257812.003906-.003906 1.199219.875c2.394531 1.734375 4.785157 3.464844 7.175781 5.191406l4.515626 3.261719.011718-.015625 1.566406 1.125c9.695313 6.960938 19.71875 14.085938 29.789063 21.175781l4.105469 2.894531 1.734375 1.222657c.308593.21875.617187.4375.855469.597656 3.746093 2.628906 7.765624 5.0625 11.816406 5.0625 1.097656 0 2.148437-.179687 3.128906-.535156 3.28125-1.195313 5.394531-4.085938 7.621094-7.464844 3.53125-5.355469 7.351562-11.382813 11.046875-17.207031l1.066406-1.683594c3.265625-5.164062 6.644531-10.5 9.847656-15.394531l2.980469-4.558594-4.792969-2.582031c-2.320312-1.25-4.363281-2.871094-6.339843-4.441406zm0 0"/><path d="m177.699219 88.863281.199219-.183593-1.570313-1.171876-1.480469-1.464843-.171875.226562-1.609375-1.203125-.351562-.269531c-2.617188-1.960937-5.25-3.917969-7.878906-5.875l-7.5625-5.628906-.007813.011719-1.339844-.992188c-10.425781-7.71875-20.824219-15.34375-30.90625-22.667969l-2.078125-1.507812.003906-.003907-2.421874-1.753906v.003906l-12.894532-9.3125-.007812.007813-1.574219-1.128906c-9.691406-6.964844-19.714844-14.089844-29.789063-21.179688l-.800781-.5625.089844-.085937-5.125-3.464844c-.273437-.183594-.546875-.378906-.855469-.597656-3.738281-2.625-7.757812-5.054688-11.816406-5.054688-1.097656 0-2.148438.179688-3.105469.527344-3.304687 1.1875-5.421875 4.089844-7.644531 7.476562-3.828125 5.800782-8.054688 12.476563-11.78125 18.363282l-.660156 1.042968c-3.164063 4.988282-6.4375 10.148438-9.523438 14.882813l-2.964844 4.546875 4.773438 2.582031c2.347656 1.269531 4.472656 2.960938 6.347656 4.445313l13.296875 10.578125-.003906.003906 27.398437 21.777344 74.179688 59 3.15625-3.152344c.214844-.21875.40625-.445313.582031-.695313l26.28125-32.984374c3.238281-4.066407 5.929688-7.792969 6.070313-12.253907.113281-3.753906-1.589844-7.371093-5.210938-11.058593zm0 0"/><path d="m146.820312 225.949219-32.84375-26.433594c-4.046874-3.257813-7.761718-5.96875-12.183593-6.121094-.160157-.007812-.316407-.011719-.472657-.011719-3.597656 0-7.085937 1.6875-10.664062 5.15625l-1.242188 1.207032-.40625-.449219-1.605468 2.40625-1.085938 1.050781.257813.183594-1.117188 1.671875-.101562.128906c-2.332031 3.078125-4.65625 6.175781-6.980469 9.269531l-4.59375 6.117188h.003906l-1.011718 1.351562c-7.707032 10.316407-15.378907 20.675782-22.804688 30.792969l-1.511719 2.0625-.019531-.011719-2.644531 3.640626c-.914063 1.257812-6.714844 9.21875-6.714844 9.21875l-2.898437 3.992187c-7.085938 9.773437-14.257813 19.757813-21.316407 29.691406l-.566406.796875-.011719-.011718-4.167968 5.882812c-3.421876 4.832031-6.347657 9.984375-4.59375 14.925781 1.175781 3.28125 4.058593 5.410157 7.433593 7.664063 5.769531 3.847656 12.425781 8.105468 18.300781 11.863281 5.265626 3.367187 10.832032 6.933594 15.890626 10.261719l4.527343 2.980468 2.605469-4.75c1.304688-2.375 3.058594-4.570312 4.457031-6.324218l12.539063-15.609375 1.03125-1.28125c11.3125-14.09375 22.632812-28.183594 33.949218-42.269531l6.113282-7.609376s.175781-.230468.238281-.316406l1.117187-1.570312.097657.070312 36.851562-45.871094-3.171875-3.167968c-.210937-.214844-.4375-.40625-.683594-.578125zm0 0"/></g><path d="m207.984375 439.988281c-2.632813-5.277343-8.507813-11.441406-16.402344-11.441406h-.113281c-5.074219.042969-10.324219 2.863281-14.046875 7.542969-3.460937 4.367187-5.285156 9.601562-6.613281 14.152344-4.886719 16.796874-5.78125 34.785156-2.59375 52.023437l.761718 4.128906 43.117188-.378906.210938-4.734375c.621093-13.941406.523437-27.992188-.292969-41.753906-.402344-6.855469-1.011719-13.507813-4.027344-19.539063zm0 0" fill="#935252"/><path d="m174.308594 398.082031 1.011718 2.65625 2.804688.488281c.601562.105469 1.273438.128907 1.753906.132813.445313.011719.976563.035156 1.570313.058594l.957031.039062c2.058594.085938 4.875.207031 7.875.207031 3.039062 0 5.652344-.121093 7.984375-.371093 7.289063-.773438 11.410156-2.796875 12.609375-6.214844.726562-2.105469.511719-4.308594.34375-6.0625l-1.882812-20.21875c-.757813-8.152344-3.570313-13.917969-7.917969-16.234375-1.402344-.753906-2.96875-1.132812-4.65625-1.132812-2.351563 0-4.832031.722656-7.582031 2.210937-11.449219 6.199219-16.640626 20.09375-15.433594 41.265625.070312 1.34375.25 2.351562.5625 3.175781zm0 0" fill="#935252"/><path d="m356.25 307.28125c-13.574219-10.890625-27.035156-21.492188-40.011719-31.507812-23.601562-18.25-47.855469-36.378907-72.09375-53.882813-6.457031-4.679687-13.273437-9.5625-20.265625-14.511719l-3.890625-2.753906-2.878906 3.679688c-.09375.105468-.179687.210937-.253906.304687.898437-1.144531 1.734375-2.34375 2.488281-3.59375l1.015625-1.023437v-.785157c3.300781-6.265625 4.652344-13.339843 3.8125-20.070312-.964844-7.660157-4.734375-14.941407-10.613281-20.503907-.875-.832031-1.792969-1.613281-2.746094-2.347656l2.894531 2.164063 3.023438-3.765625c33.230469-41.390625 66.457031-82.773438 99.703125-124.167969 2.503906-3.125 5.34375-6.664063 6.234375-10.886719.816406-4.003906-.726563-9.070312-4.726563-10.609375-.792968-.308593-1.636718-.460937-2.511718-.460937-3.542969 0-7.289063 2.5-11.441407 7.644531-10.699219 13.1875-21.367187 26.597656-31.707031 39.859375-18.167969 23.261719-36.421875 47.433594-54.246094 71.847656-4.53125 6.199219-8.851562 12.164063-13.199218 18.238282l-3.203126 4.570312 4.871094 2.730469.765625.449219c-1.9375-1.140626-3.96875-2.085938-6.058593-2.796876l-.792969-.253906c-3.058594-.953125-6.253907-1.4375-9.496094-1.4375-4.617187 0-9.167969.945313-13.53125 2.8125-4.402344 1.886719-8.328125 4.597656-11.683594 8.082032-.214843.226562-.429687.464843-.589843.640624-.964844 1.050782-1.847657 2.144532-2.660157 3.28125.015625-.023437.03125-.046874.046875-.070312l2.796875-4.214844-39.203125-31.175781c-17.40625-13.84375-34.8125-27.6875-52.222656-41.527344l-40.710938-32.386719c-2.972656-2.363281-6.671874-5.304687-10.863281-6.152343-.691406-.148438-1.410156-.21875-2.191406-.21875-3.265625 0-7.140625 1.539062-8.445313 4.980469-1.5625 4.128906.886719 8.816406 7.269532 13.941406 13.613281 10.921875 27.078125 21.519531 40.011718 31.503906 23.769532 18.375 48.027344 36.507812 72.097657 53.886719 7.578125 5.476562 15.085937 10.84375 22.3125 15.957031l4.53125 3.210938 2.71875-4.84375c.019531-.042969.050781-.082032.074219-.125-.671876 1.171874-1.273438 2.375-1.792969 3.617187-.214844.527344-.421875 1.054687-.617188 1.59375-.652343 1.804687-1.144531 3.679687-1.46875 5.589844-1.6875 10.167969 1.765625 21.304687 9.011719 29.0625.667969.714843 1.363281 1.382812 2.074219 2.019531l-2.195313-1.871094-19.601562 24.394532c-11.269532 14.035156-22.542969 28.066406-33.808594 42.097656-16.582031 20.632812-33.152344 41.273437-49.726562 61.914062l-3.808594 4.742188c-2.511719 3.132812-5.355469 6.683594-6.230469 10.875-.839844 4.007812.699219 9.082031 4.746094 10.644531.78125.296875 1.613281.449219 2.476562.449219 3.550781 0 7.304688-2.507813 11.472657-7.664063 9.949218-12.261719 20.617187-25.671875 31.707031-39.851562 18.464843-23.660157 36.710937-47.832031 54.226562-71.835938 5.371094-7.355469 11.019531-15.179687 16.792969-23.265625l3.136719-4.394531-4.269531-2.578125c1.410156.84375 2.921874 1.59375 4.5 2.226562l.90625.359376h.03125c3.878906 1.4375 7.972656 2.164062 12.191406 2.164062 6.425781 0 12.582031-1.699219 17.816406-4.917969.664062-.410156 1.300781-.835937 1.953125-1.308593 1.285156-.933594 2.507813-1.976563 3.660156-3.105469l-3.324219 3.324219 4.386719 3.488281c27.800781 22.101562 55.589844 44.199219 83.378907 66.300781l43.679687 34.730469c2.972656 2.375 6.675781 5.332031 10.925781 6.195312.691406.140625 1.414063.210938 2.144532.210938 3.265624 0 7.144531-1.535157 8.46875-5.003907 1.539062-4.125-.90625-8.808593-7.273438-13.914062zm-194.359375-138.238281c.050781-.082031.109375-.15625.164063-.238281-.140626.203124-.277344.402343-.410157.609374.023438-.039062.046875-.078124.074219-.113281zm-.40625.609375c.011719-.019532.027344-.039063.039063-.058594-.160157.246094-.308594.492188-.457032.742188.128906-.214844.261719-.4375.417969-.683594zm7.738281 44.367187c.164063.132813.332032.273438.5.402344-.140625-.105469-.261718-.195313-.261718-.195313zm.890625.703125c.023438.015625.046875.03125.066407.046875h-.003907c-.011719-.011719-.042969-.035156-.0625-.046875zm1.707031 1.191406c.054688.035157.105469.074219.164063.109376-.050781-.03125-.105469-.0625-.152344-.09375zm.636719.40625c-.050781-.03125-.097656-.0625-.144531-.089843.144531.089843.292969.183593.4375.265625zm35.714844-57.867187c.085937.054687.167969.105469.25.160156l.082031.050781c-.109375-.070312-.21875-.140624-.332031-.210937zm1.472656.980469.257813.167968.691406.519532c-.3125-.238282-.632812-.464844-.949219-.6875zm4.65625 52.085937c.113281-.117187.226563-.238281.339844-.359375-.074219.082032-.136719.152344-.136719.152344zm1.382813-1.488281c-.050782.058594-.105469.117188-.160156.175781.128906-.144531.253906-.292969.382812-.4375-.039062.042969-.078125.085938-.113281.132813zm0 0" fill="#f7b36f"/><path d="m225.027344 156.46875 33.046875 26.589844c3.664062 2.949218 8.679687 6.984375 15.164062 7.222656.199219.007812.402344.011719.601563.011719 9.890625 0 16.679687-8.980469 19.980468-13.34375 25.519532-33.765625 50.863282-68.390625 75.324219-102.914063 2.628907-3.710937 8.097657-11.425781 5.222657-19.488281-1.824219-5.113281-6.363282-8.140625-9.367188-10.144531-5.71875-3.816406-12.148438-7.929688-18.367188-11.910156-6.183593-3.957032-12.578124-8.046876-18.222656-11.8125-.1875-.125-.382812-.210938-.578125-.308594-.332031-4.957032-2.898437-10.03125-8.113281-12.027344-7.949219-3.039062-15.0625 3.066406-19.625 8.71875-10.546875 13.003906-21.234375 26.441406-31.757812 39.929688-18.183594 23.28125-36.46875 47.496093-54.339844 71.96875-4.75 6.492187-9.589844 13.195312-14.742188 20.402343-11.667968-2.652343-24.261718.503907-33.746094 8.347657-3.335937-2.652344-6.671874-5.304688-10.007812-7.960938.019531-.023438.042969-.042969.0625-.066406l26.429688-33.171875c2.933593-3.675781 6.945312-8.714844 7.152343-15.199219.324219-10.21875-8.964843-17.171875-13.429687-20.511719-33.886719-25.359375-68.632813-50.535156-103.277344-74.835937-3.722656-2.609375-11.464844-8.042969-19.507812-5.128906-5.109376 1.847656-8.117188 6.402343-10.105469 9.417968-3.792969 5.746094-7.882813 12.203125-11.835938 18.445313-3.921875 6.195312-7.976562 12.601562-11.710937 18.257812-.125.183594-.207032.382813-.300782.574219-4.957031.347656-10.015624 2.933594-11.992187 8.167969-2.40625 6.375.558594 12.96875 8.8125 19.597656 13.402344 10.757813 26.890625 21.378906 40.085937 31.570313 23.703126 18.320312 48.007813 36.484374 72.238282 53.984374 7.96875 5.753907 16.136718 11.589844 24.320312 17.378907-.226562.914062-.421875 1.832031-.574218 2.753906-1.703126 10.261719 1.144531 21.363281 7.488281 29.914063-3.046875 3.792968-6.09375 7.582031-9.136719 11.375-.023438-.019532-.042969-.042969-.066406-.0625l-33.046875-26.59375c-3.664063-2.945313-8.679688-6.984376-15.164063-7.222657-10.234375-.363281-17.214844 8.882813-20.578125 13.332031-25.519531 33.769532-50.863281 68.394532-75.328125 102.917969-2.628906 3.707031-8.09375 11.425781-5.222656 19.484375 1.824219 5.113282 6.363281 8.144532 9.371094 10.148438 5.71875 3.816406 12.152344 7.933594 18.375 11.914062 6.179687 3.957032 12.570312 8.042969 18.214844 11.808594.1875.125.378906.230469.578124.324219.335938 4.957031 2.898438 10.015625 8.109376 12.011719 1.441406.550781 2.898437.828124 4.367187.828124 4.992187 0 10.109375-3.195312 15.269531-9.546874 10.3125-12.730469 21-26.160157 31.757813-39.929688 6.96875-8.925781 13.917969-17.941406 20.820312-27.015625-18.644531 69.050781-30.078125 141.890625-33.214843 212.105469-.0625 1.371094.445312 2.707031 1.398437 3.695312.941406.980469 2.242187 1.53125 3.597656 1.53125h.042969l162.949219-1.425781c6.070312-.054687 17.375-.152344 23.820312-7.9375 5.121094-6.179687 5.011719-14.277344 4.507813-21.382813-3.164063-44.777343-10.632813-89.382812-22.199219-132.773437 11.375 8.152344 22.773437 16.242187 34.164063 24.230469 2.972656 2.082031 8.503906 5.964844 14.707031 5.964844 1.566406 0 3.179687-.25 4.800781-.835938 5.109375-1.847656 8.117188-6.402344 10.105469-9.417969 3.792969-5.742187 7.878906-12.199219 11.832031-18.445312 3.925781-6.195313 7.980469-12.601563 11.714844-18.257813.121094-.179687.203125-.375.296875-.566406 4.953125-.347656 10.011719-2.9375 11.992187-8.167969 0 0 0-.003906.003906-.003906 2.402344-6.375-.5625-12.96875-8.8125-19.597656-13.363281-10.722657-26.851562-21.34375-40.085937-31.570313-23.726563-18.335937-48.027344-36.5-72.230469-53.980468-7.042968-5.097657-14.078125-10.132813-20.984375-15.015626 2.820313-6.476562 3.898438-13.539062 3.046875-20.296874-.917968-7.324219-4.0625-14.332032-8.960937-20.148438 1.597656-1.988281 3.199219-3.976562 4.796875-5.96875.023437.019531.039062.042969.0625.0625zm-185.589844-122.421875c3.929688-6.203125 7.992188-12.621094 11.730469-18.285156 1.734375-2.628907 3.320312-4.855469 5.164062-5.523438 4.167969-1.507812 8.363281 2.953125 11.554688 4.898438 4.984375 3.035156 9.632812 6.085937 14.246093 9.703125 30.464844 23.886718 64.320313 43.378906 93.382813 68.957031 6.0625 5.335937 2.886719 11.175781-1.34375 16.484375 0 0-26.433594 33.167969-26.433594 33.167969-.019531.027343-.03125.058593-.054687.085937-.058594.078125-64.472656-51.265625-70.695313-56.214844-13.542969-10.773437-27.296875-21.699218-40.6875-32.359374-2.035156-1.621094-4.375-3.46875-7.078125-4.933594 3.320313-5.089844 6.816406-10.613282 10.214844-15.980469zm118.984375 131.21875c-.246094.339844-.476563.6875-.710937 1.035156-.15625.234375-.316407.46875-.46875.707031-.25.390626-.484376.785157-.714844 1.183594-.097656.160156-.199219.3125-.289063.476563-7.496093-5.3125-14.960937-10.652344-22.265625-15.925781-24.140625-17.433594-48.355468-35.53125-71.976562-53.789063-13.148438-10.15625-26.585938-20.738281-39.941406-31.453125-4.246094-3.410156-6.378907-6.503906-5.714844-8.269531.390625-1.035157 2.050781-1.753907 3.769531-1.753907.390625 0 .78125.039063 1.160156.117188 3.0625.621094 6.109375 3.046875 8.800781 5.191406l40.695313 32.359375c29.277344 23.289063 58.554687 46.574219 87.839844 69.851563-.066407.089844-.121094.179687-.183594.269531zm161.910156-127.613281c1.625-2.027344 3.480469-4.359375 4.957031-7.046875 5.082032 3.351562 10.59375 6.878906 15.953126 10.308593 6.179687 3.953126 12.566406 8.042969 18.207031 11.804688 2.621093 1.746094 4.84375 3.34375 5.5 5.1875 1.726562 4.847656-4.101563 11.113281-6.703125 14.457031-4.207032 5.40625-8.355469 10.851563-12.457032 16.332031-8.210937 10.96875-16.234374 22.074219-24.144531 33.257813-11.128906 15.746094-22.429687 31.753906-34.695312 46.421875-3.175781 3.796875-7.683594 12.121094-13.34375 11.914062-2.929688-.109374-5.925781-2.339843-9.261719-5.023437l-33.042969-26.589844c-.027343-.019531-.058593-.035156-.085937-.054687.65625.507812 58.839844-73.269532 64.179687-79.921875 3.988281-4.964844 7.003907-10.347657 11.238281-15.050781 4.699219-5.214844 9.300782-10.519532 13.699219-15.996094zm-158.597656 144.960937c.261719-1.589843.671875-3.164062 1.238281-4.710937.167969-.46875.347656-.933594.539063-1.390625 1.242187-2.972657 3.019531-5.710938 5.285156-8.179688.175781-.195312.351563-.390625.53125-.582031.003906-.003906.003906-.003906.007813-.003906 5.804687-6.03125 13.734374-9.335938 21.589843-9.335938 2.707031 0 5.410157.394532 8.007813 1.207032l.742187.242187c3.769531 1.28125 7.378907 3.492187 10.441407 6.398437 5.046874 4.777344 8.273437 10.992188 9.089843 17.507813.765625 6.074219-.601562 12.519531-3.847656 18.15625 0 .003906-.003906.007813-.007813.011719-2.050781 3.585937-4.835937 6.714844-8.085937 9.074218-.503906.371094-1.039063.730469-1.636719 1.101563-7.6875 4.726563-17.816406 5.5-26.453125 2.011719 0 0 0 0-.003906 0-1.324219-.53125-2.601563-1.164063-3.804687-1.882813-.402344-.238281-.796876-.488281-1.183594-.746093-1.6875-1.136719-3.277344-2.496094-4.726563-4.054688-6.203125-6.644531-9.164062-16.152344-7.722656-24.824219zm-106.890625 158.410157c-1.621094 2.027343-3.476562 4.363281-4.949219 7.046874-5.082031-3.351562-10.589843-6.875-15.949219-10.304687-6.179687-3.957031-12.570312-8.046875-18.214843-11.808594-2.617188-1.75-4.839844-3.34375-5.496094-5.1875-1.65625-4.644531 3.726563-10.328125 6.140625-13.769531 3.542969-5.046875 7.238281-9.976562 10.992188-14.867188 11.667968-15.214843 23.238281-30.316406 33.992187-46.207031 10.332031-15.265625 20.820313-30.65625 34.234375-43.429687 5.644531-5.375 9.78125-3.484375 15.242188.910156l33.046874 26.59375c.027344.019531.058594.035156.085938.054688.414062.324218-73.621094 91.796874-80.40625 100.070312-2.953125 3.601562-5.808594 7.277344-8.71875 10.898438zm44.132812-25.492188c-10.722656 13.71875-21.371093 27.105469-31.644531 39.785156-3.4375 4.230469-6.535156 6.355469-8.296875 5.679688-1.261718-.484375-2.050781-2.886719-1.621094-4.945313.628907-3.015625 2.976563-5.949219 5.234376-8.773437 17.84375-22.222656 35.6875-44.4375 53.527343-66.648438 16.726563-20.824218 33.453125-41.648437 50.183594-62.480468.070313.058593.148437.105468.222656.164062.652344.507812 1.3125.996094 1.992188 1.453125.011719.007813.019531.015625.035156.023437.410156.28125.832031.546876 1.257813.8125-5.632813 7.898438-11.257813 15.6875-16.757813 23.214844-17.582031 24.089844-35.796875 48.21875-54.132813 71.714844zm69.710938 170.378906c.304688-13.277344 1.816406-30.199218 10.878906-43.289062 2.222656-3.203125 4.457032-5.496094 6.835938-7.011719 2.550781-1.617187 5.402344-2.328125 7.824218-1.949219 1.609376.253906 3.308594 1 5.046876 2.214844 4.085937 2.859375 7.382812 7.6875 9.28125 13.597656 1.941406 6.039063 2.363281 12.664063 2.523437 18.351563.304687 11.074219-.347656 22.242187-1.929687 33.214843-13.34375.117188-26.6875.234376-40.03125.351563-.429688-4.472656-.570313-9.460937-.429688-15.480469zm112.117188-3.949218c.382812 5.40625.523437 10.96875-2.234376 14.300781-3.210937 3.878906-10.050781 4.257812-16.210937 4.3125-14.367187.125-28.738281.253906-43.109375.378906 1.511719-11.046875 2.132812-22.273437 1.824219-33.40625-.179688-6.390625-.675781-13.898437-3-21.132813-1.816407-5.640624-5.554688-13.46875-13.066407-18.730468-3-2.097656-6.101562-3.410156-9.226562-3.898438-4.871094-.765625-10.105469.4375-14.742188 3.390625-3.527343 2.242188-6.699218 5.429688-9.691406 9.753907-10.578125 15.273437-12.320312 34.078124-12.660156 48.753906-.140625 6.039062-.011719 11.152344.394531 15.796875-18.125.15625-36.25.316406-54.378906.472656 3.816406-75.503906 17.257813-153.886719 38.957031-227.035156.167969-.570313.214844-1.144531.179688-1.707031 5.835937-7.820313 11.625-15.660157 17.34375-23.496094 5.917968-8.097656 11.976562-16.503906 18.039062-25.015625 3.636719 1.046875 7.410156 1.570312 11.171875 1.570312 6.855469 0 13.65625-1.742187 19.519531-5.105469 3.253907 2.589844 6.511719 5.179688 9.765626 7.765626-.015626.023437-.042969.039062-.058594.0625l-26.433594 33.171874c-2.929688 3.675782-6.945312 8.714844-7.152344 15.199219-.324218 10.21875 8.964844 17.171875 13.429688 20.515625 18.574218 13.898438 37.414062 27.738282 56.351562 41.417969.019532.359375.070313.726563.175782 1.089844 13.085937 46.117187 21.433593 93.75 24.8125 141.574219zm54.9375-137.335938c-3.929688 6.207031-7.992188 12.625-11.730469 18.289062-1.734375 2.628907-3.320313 4.855469-5.164063 5.523438-2.988281 1.078125-4.898437-.84375-6.707031-2.683594-2.523437-2.566406-5.300781-4.597656-8.28125-6.648437-20.5625-14.15625-41.125-28.3125-61.6875-42.46875-8.871094-6.105469-17.746094-12.214844-26.25-18.824219-4.242187-3.300781-8.394531-6.71875-12.390625-10.3125-2.992188-2.691406-7.648438-5.242188-7.5-9.820312.09375-2.925782 2.308594-5.933594 4.976562-9.28125l26.433594-33.171876c.023438-.027343.035156-.054687.054688-.082031 1.066406-.765625 19.382812 15.503907 20.878906 16.710938 8.832031 7.136719 17.476562 14.832031 26.742188 21.339843 6.933593 4.871094 13.441406 10.503907 20.082031 15.785157 14.5625 11.582031 29.125 23.160156 43.683593 34.738281 2.035157 1.621094 4.375 3.46875 7.078126 4.933594-3.328126 5.089844-6.820313 10.609375-10.21875 15.972656zm-114.96875-132.90625c.070312-.089844.144531-.171875.214843-.261719 6.652344 4.710938 13.4375 9.566407 20.21875 14.480469 24.121094 17.417969 48.335938 35.515625 71.976563 53.789062 13.1875 10.1875 26.628906 20.769532 39.941406 31.453126 4.242188 3.40625 6.375 6.496093 5.714844 8.265624-.480469 1.269532-2.867188 2.0625-4.929688 1.640626-3.0625-.621094-6.109375-3.046876-8.800781-5.191407l-43.6875-34.742187c-27.792969-22.101563-55.585937-44.203125-83.378906-66.296875.160156-.164063.308593-.34375.46875-.507813.292969-.316406.589843-.632812.875-.957031.199219-.226563.386719-.453125.578125-.683594.273437-.328125.546875-.652343.808594-.988281zm-7.945313-56.171875c-.117187-.085937-.242187-.15625-.359375-.242187-.339844-.238282-.683594-.46875-1.03125-.695313-.277344-.183594-.554688-.367187-.835938-.542969-.347656-.214844-.703124-.421875-1.058593-.625-.214844-.125-.421875-.261718-.640625-.382812 4.570312-6.378906 8.90625-12.371094 13.167968-18.199219 17.808594-24.386719 36.023438-48.515625 54.144532-71.714844 10.488281-13.441406 21.132812-26.828125 31.652344-39.792969 3.410156-4.226562 6.507812-6.347656 8.273437-5.667968 1.265625.484375 2.050781 2.886718 1.621094 4.945312-.632813 3.027344-2.972657 5.945313-5.230469 8.765625-33.242188 41.386719-66.472656 82.765625-99.703125 124.152344zm0 0"/><path d="m212.019531 350.988281c-4.308593-6.277343-12.425781-9.570312-20.183593-8.191406-6.503907 1.160156-12.777344 5.441406-17.214844 11.753906-3.441406 4.90625-5.90625 10.980469-7.53125 18.570313-1.34375 6.261718-1.957032 12.695312-1.824219 19.121094.078125 3.9375.214844 10.53125 6.496094 13.625 3.300781 1.625 6.996093 1.996093 10.453125 1.996093 1.566406 0 3.078125-.078125 4.484375-.148437.851562-.042969 1.675781-.082032 2.464843-.101563 6.011719-.160156 12.09375-.632812 18.070313-1.402343 1.90625-.246094 5.464844-.703126 8.023437-3.597657 2.09375-2.367187 2.554688-5.359375 2.800782-6.964843 1.824218-11.847657 1.074218-24.1875-2.171875-35.683594-.792969-2.808594-1.875-6.074219-3.867188-8.976563zm-3.84375 43.136719c-.171875 1.132812-.316406 1.628906-.382812 1.804688-.285157.121093-.898438.242187-1.835938.363281-5.640625.726562-11.382812 1.171875-17.0625 1.320312-.859375.023438-1.765625.066407-2.695312.113281-3.542969.179688-7.5625.378907-10.019531-.832031-.703126-.34375-.855469-1.839843-.917969-4.855469-.113281-5.652343.425781-11.3125 1.605469-16.824218 1.339843-6.253906 3.28125-11.132813 5.9375-14.914063 2.929687-4.167969 6.859374-6.960937 10.78125-7.65625 3.96875-.703125 8.0625.902344 10.191406 4.003907 1.171875 1.707031 1.914062 4.007812 2.484375 6.035156 2.863281 10.125 3.523437 20.996094 1.914062 31.441406zm0 0"/></svg>